<?xml version="1.0" standalone="no"?>
<!DOCTYPE svg PUBLIC "-//W3C//DTD SVG 1.1//EN" "http://www.w3.org/Graphics/SVG/1.1/DTD/svg11.dtd" >
<svg xmlns="http://www.w3.org/2000/svg" xmlns:xlink="http://www.w3.org/1999/xlink" version="1.1">
<metadata>
Created by FontForge 20170910 at Sun Nov  5 19:43:59 2017
 By Jimmy Wärting
2016 | Pixel Surplus x Jeremy Vessey
</metadata>
<defs>
<font id="WildYouth-Regular" horiz-adv-x="100" >
  <font-face 
    font-family="Wild Youth"
    font-weight="400"
    font-stretch="normal"
    units-per-em="1000"
    panose-1="0 0 5 0 0 0 0 0 0 0"
    ascent="800"
    descent="-200"
    x-height="468"
    cap-height="889"
    bbox="-240.377 -418.778 1124 1167.83"
    underline-thickness="50"
    underline-position="-100"
    unicode-range="U+000D-2212"
  />
<missing-glyph horiz-adv-x="500" 
d="M410 -200h-317v1000h317v-1000zM168 733v-33h65v-37h-66v-33h166v33h-66v37h66v33h-165zM167 604v-104h166v34h-66v70h-100zM233 534h-33v36h33v-36zM167 473v-33h66v-37h-66v-33h100v70h66v33h-166zM300 413v-66h-133v-34h166v100h-33zM233 291v-56h34v23h33v-47h-100
v80h-33v-113h166v113h-100zM167 118v-113h166v113h-166zM300 38h-100v47h100v-47zM167 -18v-33h70l-70 -47v-33h166v33h-102l70 47h32v33h-166z" />
    <glyph glyph-name=".notdef" horiz-adv-x="500" 
d="M410 -200h-317v1000h317v-1000zM168 733v-33h65v-37h-66v-33h166v33h-66v37h66v33h-165zM167 604v-104h166v34h-66v70h-100zM233 534h-33v36h33v-36zM167 473v-33h66v-37h-66v-33h100v70h66v33h-166zM300 413v-66h-133v-34h166v100h-33zM233 291v-56h34v23h33v-47h-100
v80h-33v-113h166v113h-100zM167 118v-113h166v113h-166zM300 38h-100v47h100v-47zM167 -18v-33h70l-70 -47v-33h166v33h-102l70 47h32v33h-166z" />
    <glyph glyph-name="NULL" horiz-adv-x="0" 
 />
    <glyph glyph-name="NULL" horiz-adv-x="0" 
 />
    <glyph glyph-name="nonmarkingreturn" unicode="&#xd;" horiz-adv-x="600" 
 />
    <glyph glyph-name="space" unicode=" " horiz-adv-x="600" 
 />
    <glyph glyph-name="D" unicode="D" horiz-adv-x="842" 
d="M850 770q22 -2 41.5 -10.5t33.5 -23.5t21.5 -35.5t4.5 -47.5q-5 -47 -19.5 -90.5t-33.5 -85.5q-44 -98 -97.5 -189t-128.5 -169q-44 -45 -92 -83q-15 -12 -33 -20.5t-36 -13.5q-34 -10 -60 5t-38 48q-14 38 -3 81q14 51 37 98t53 91q13 19 24 21t38 -6l-12 -30
q-18 -37 -36.5 -73t-35.5 -73q-9 -19 -11 -39.5t0 -40.5q2 -13 6.5 -25t18.5 -22q21 11 37 25.5t30 30.5q57 64 103.5 134.5t86.5 145.5q30 57 55 114.5t39 120.5q4 17 4.5 34t0.5 34q1 13 -4.5 24.5t-19.5 20.5q-11 0 -21 -4t-21 -9q-45 -22 -89 -46.5t-86 -53.5
q-45 -32 -88 -71t-80 -81q-38 -42 -73.5 -86t-70.5 -89q-35 -46 -71 -90t-72 -89q-11 -15 -24.5 -28t-26.5 -26q-16 -16 -35 -20t-39 0q-36 6 -24 40q13 33 24.5 66t28.5 64q63 118 127.5 234t145.5 223q19 25 39.5 48.5t42.5 46.5q17 17 38.5 20t49.5 -11q-8 -15 -13 -27
t-11 -23l-195 -313q-15 -25 -29.5 -50.5t-27.5 -53.5q5 5 10 9.5t10 9.5q102 121 219 231q54 51 108.5 97t120.5 82q23 13 45.5 24.5t46.5 18.5q33 11 67 6z" />
    <glyph glyph-name="E" unicode="E" horiz-adv-x="550" 
d="M272 470q-27 37 -24.5 71t18.5 67q14 29 29.5 56t33.5 53q56 77 151 94q35 7 64 -2t48 -29t25.5 -49.5t-2.5 -63.5q-20 -80 -75 -138q-32 -34 -74 -48q-10 -4 -20 -4t-20 12q5 5 10 11t11 11q20 20 40 39t37 41q20 24 29.5 52.5t7.5 60.5q0 11 -2 21t-5 20q-22 59 -81 33
q-21 -10 -37.5 -24.5t-30.5 -32.5q-20 -27 -35 -57.5t-26 -62.5q-11 -33 -7 -64.5t24 -60.5q10 -14 18.5 -28.5t17.5 -28.5q-11 -17 -24.5 -19.5t-27.5 -1.5q-6 1 -11.5 3t-10.5 4q-26 10 -44 13.5t-32 0t-27.5 -15.5t-29.5 -33q-33 -45 -53 -95t-23 -107q-2 -21 3.5 -42.5
t18 -41t31 -36t44.5 -26.5q29 -11 54 1q32 17 56.5 40.5t41.5 55.5q8 17 9 34t-8 34l-9 21q-3 9 -5.5 19t8.5 15q7 4 17 4t18 -2q17 -5 31 -18t22.5 -29.5t11.5 -36t-3 -37.5q-38 -128 -167 -161q-48 -12 -92.5 -4t-88.5 28q-37 17 -59.5 41t-34 51.5t-13 56.5t3.5 55
q25 123 114 216q24 25 53.5 40t65.5 17q7 1 14.5 3t20.5 4z" />
    <glyph glyph-name="F" unicode="F" horiz-adv-x="482" 
d="M0 288q11 19 26.5 25t30.5 10q36 8 72.5 15.5t73.5 12.5q20 3 33 11t25 24q50 67 109 133q38 46 78 90t78 90q21 26 39.5 54.5t35.5 57.5q9 15 14 32t7 34q8 54 -45 65q-15 4 -30.5 4t-29.5 -2q-34 -5 -66 -15.5t-62 -26.5q-51 -28 -96 -63t-81 -80q-15 -18 -27 -38
t-22 -41q-28 -58 -3 -123l6 -16t5 -16q-7 -13 -16 -14t-18 1q-20 5 -32.5 18t-20.5 31q-9 18 -11 37.5t2 39.5q7 32 19 60.5t32 54.5q139 184 365 223q25 5 50.5 4t51.5 -3q15 -2 29.5 -6.5t28.5 -11.5q54 -28 51 -87q-1 -30 -10.5 -57t-23.5 -53q-29 -54 -64.5 -103
t-75.5 -95q-51 -58 -96 -118t-85 -126q-32 -55 -57 -112.5t-43 -117.5q-6 -20 -9.5 -41t-5.5 -42q-2 -19 0.5 -36.5t17.5 -31.5q-26 -22 -51.5 -20t-40.5 27q-5 7 -8 14.5t-5 15.5q-11 43 -13.5 85.5t11.5 84.5q10 30 21.5 59.5t22.5 58.5q4 10 9 19.5t11 22.5
q-15 1 -27 -3.5t-24 -7.5q-23 -7 -46.5 -13.5t-47.5 -11.5q-16 -4 -32 -1t-30 19z" />
    <glyph glyph-name="G" unicode="G" horiz-adv-x="544" 
d="M321 285q11 19 27 21.5t32 0.5q41 -4 80 1.5t77 17.5q23 8 45 18t45 20l49 22q16 -20 17.5 -29t-10.5 -21q-24 -23 -49 -35q-40 -20 -81.5 -33t-86.5 -20l-56 -9q-2 -9 -2.5 -16t-1.5 -14q-3 -40 -19.5 -78.5t-42.5 -70.5t-60.5 -55t-73.5 -32q-80 -19 -131 12.5
t-73 100.5q-7 22 -6 44t6 44q26 123 84.5 226.5t148.5 191.5q81 80 179 133q29 16 60 25t65 7q44 -2 66 -25t17 -68q-3 -26 -8.5 -51t-15.5 -48q-11 -26 -25.5 -50t-28.5 -48q-4 -5 -9.5 -10t-11.5 -7q-5 -2 -12.5 -0.5t-12.5 4.5q-2 2 -1.5 9t2.5 11q4 9 9.5 16t10.5 15
q23 32 35 66.5t17 72.5q1 6 1.5 11.5t-0.5 11.5q-3 42 -20.5 52t-54.5 -10q-22 -11 -43 -28q-207 -154 -302 -396q-14 -35 -21.5 -71.5t-15.5 -72.5q-6 -29 1 -56t24 -50q9 -14 17.5 -16.5t22.5 5.5q17 10 33 21.5t32 22.5q5 4 8.5 8t7.5 9q18 22 32.5 45.5t23 48t9.5 51
t-9 55.5z" />
    <glyph glyph-name="H" unicode="H" horiz-adv-x="830" 
d="M0 -196q24 28 49 54t49.5 52t47 53.5t41.5 57.5q38 60 63.5 125t49.5 134q-18 -1 -35.5 -6t-34 -9.5t-33 -7t-33.5 2.5q-3 1 -5 3.5t-4 4.5q-2 13 6 18.5t16 9.5q26 11 53 22.5t55 19.5q25 7 38 21.5t21 37.5q25 73 51 145.5t53 144.5q14 38 34 73.5t47 67.5q16 17 34 32
t40 23q14 5 28.5 7.5t28.5 -9.5q-2 -3 -2 -6t-1 -3q-23 -5 -37.5 -19.5t-25.5 -32.5q-11 -17 -20.5 -34.5t-17.5 -35.5q-36 -85 -61 -174t-54 -180q9 -1 16 -2.5t12 0.5q54 14 106 29.5t106 29.5q17 5 24 15t12 24q31 87 62 173.5t60 174.5q19 57 35 115.5t33 117.5l9 31
q7 16 14.5 22t19.5 4q21 -3 20 -37q-1 -17 -2.5 -35t-4.5 -35q-38 -196 -94 -385t-141 -371q-26 -56 -58.5 -108.5t-63.5 -106.5q-12 -19 -33 -32q-8 -5 -17.5 -5t-16.5 9q-3 4 -3 12t2 13q18 51 36.5 101t38.5 101q14 35 29.5 68.5t30.5 67.5q2 5 4 11t4 13q-5 0 -8.5 1
t-6.5 0q-54 -19 -107.5 -38.5t-108.5 -37.5q-16 -5 -25 -14t-14 -26q-25 -80 -54 -155q-31 -80 -80 -146.5t-118 -118.5q-22 -17 -42.5 -34t-41.5 -34q-11 -9 -24 -14.5t-28 -2.5q-5 2 -10 5t-13 8z" />
    <glyph glyph-name="I" unicode="I" horiz-adv-x="383" 
d="M261 67q-12 -19 -26.5 -23t-30.5 -2t-29 8.5t-21 21.5q-14 28 -20.5 56.5t1.5 60.5q9 35 25.5 67t35.5 63q51 83 103 164.5t104 163.5q15 25 29.5 50t28.5 51q5 8 8 17t5 18q9 30 -17 49q-23 16 -48.5 21.5t-53.5 -4.5q-68 -23 -126 -60t-103 -94q-12 -15 -22 -32.5
t-18 -35.5q-11 -23 -15 -48.5t3 -51.5q2 -11 -0.5 -20.5t-14.5 -14.5q-13 -5 -25.5 -0.5t-19.5 16.5q-20 34 -11 72q9 42 26 80t46 70q112 123 274 159q57 13 106 -3t94 -50q31 -22 23 -58q-4 -19 -9 -38.5t-14 -36.5q-29 -53 -58 -104.5t-60 -102.5q-28 -48 -57.5 -93
t-57.5 -93q-17 -29 -32.5 -59.5t-30.5 -60.5q-4 -8 -7 -15t-6 -15q-8 -26 -7 -49.5t28 -43.5z" />
    <glyph glyph-name="J" unicode="J" horiz-adv-x="635" 
d="M384 329q-19 -14 -32 -24t-24 -20q-71 -62 -126 -134.5t-100 -155.5q-36 -68 -26 -144q2 -18 9 -33.5t22 -26.5q13 -10 26 -11.5t26 9.5q15 13 29.5 26.5t25.5 28.5q32 42 54 88t41 94l270 662q63 155 151 295l18 32q1 3 1 13q-7 -4 -13 -6.5t-11 -6.5q-66 -45 -134 -85
t-142 -71q-14 -6 -27 -14l-26 -16q-11 -7 -21.5 -14.5t-18 -17t-11 -21.5t-1.5 -27q-15 -5 -23 0t-13 16q-14 32 10 56q12 13 25.5 24.5t28.5 19.5q25 15 51.5 28t52.5 25q99 43 189 102q37 25 74 49t75 47q7 4 14.5 7t15.5 3q42 3 28 -37q-5 -12 -9.5 -24t-10.5 -23
q-51 -97 -96.5 -196.5t-87.5 -200t-81 -202.5l-78 -204q-21 -57 -44 -113t-46 -113q-42 -102 -112 -183q-16 -18 -34 -34.5t-38 -30.5q-37 -25 -76 -27.5t-81 11.5q-59 20 -73 83q-8 38 -3 74.5t19 71.5q31 72 83 135q45 54 95.5 100t105.5 88q15 11 32.5 19.5t46.5 8.5z
" />
    <glyph glyph-name="K" unicode="K" horiz-adv-x="654" 
d="M425 392q-32 -8 -50 -25t-29 -43q-19 -47 -41 -91.5t-42 -91.5q-32 -71 -84.5 -125t-112.5 -101q-32 -26 -66 -2q4 8 6.5 14t7.5 11q37 38 68 80.5t58 87.5t51 92t47 94q48 96 94 190.5t94 190.5q21 42 44.5 82t47.5 80q26 45 67 71q6 3 13.5 5t18.5 5q-5 -22 -15 -37.5
t-18 -31.5l-31 -63q-8 -17 -16 -33.5t-16 -33.5t-14.5 -32.5t-14.5 -31.5q-16 -33 -31 -68q-7 -16 -14.5 -32t-13.5 -32q-8 -17 -15.5 -33.5t-11.5 -35.5q15 -2 22.5 5t15.5 14q115 95 201.5 210t149.5 251q23 50 44.5 100t43.5 100q4 8 8 15t10 12q20 16 48 3
q14 -7 14.5 -18.5t-1.5 -22.5q-1 -7 -3 -13.5t-4 -13.5q-45 -128 -106.5 -244t-150.5 -219q-40 -45 -83 -85.5t-90 -77.5q-8 -7 -16 -13t-16 -13q2 -8 4 -9q32 -19 43.5 -48t9.5 -64q-3 -53 -7 -104.5t-6 -104.5q-2 -50 9 -98q3 -16 11 -31t30 -19q5 -1 10 -8t4 -12
t-6.5 -11t-10.5 -9q-22 -11 -50 -5t-44 26q-36 45 -56 95.5t-11 110.5q5 40 10 79t10 79q2 15 0 30l-4 30q-1 6 -5.5 11.5t-8.5 11.5z" />
    <glyph glyph-name="L" unicode="L" horiz-adv-x="762" 
d="M0 130l62 64q66 71 122.5 147t113.5 154q65 90 130.5 177.5t131.5 175.5q19 25 41.5 47t49.5 39q17 11 35.5 17t39.5 4q42 -3 51 -41q4 -14 5 -29.5t-2 -29.5q-14 -77 -55 -137.5t-102 -108.5q-8 -5 -16.5 -9.5t-16.5 -8.5q-6 -3 -14 -5t-22 -7l13.5 16.5t9.5 10.5
q25 28 50.5 55t49.5 56q22 27 35.5 59.5t20.5 67.5q2 11 3 18.5t-0.5 15t-5 16.5t-10.5 24q-7 -4 -14 -7.5t-12 -8.5q-22 -26 -44 -51.5t-41 -53.5q-55 -82 -107.5 -164t-106.5 -165q-11 -17 -21.5 -33.5t-21.5 -33.5q-33 -51 -72 -97t-86 -86q-11 -10 -22.5 -21t-27.5 -25
q12 -2 19 -3l14 -2q65 -9 118 -51q19 -15 40 -28.5t42 -24.5q15 -8 31.5 -14t33.5 -10q45 -11 83.5 1.5t71.5 42.5q14 13 27 26t27 26q23 23 51 14q9 -2 13.5 -8t1.5 -16q-5 -17 -14 -29q-48 -66 -111.5 -97t-145.5 -25q-127 9 -230 82l-42 30q-20 15 -41.5 19.5t-46.5 0.5
q-14 -2 -29.5 0t-30.5 4q-5 1 -11 6.5t-15 13.5z" />
    <glyph glyph-name="M" unicode="M" horiz-adv-x="876" 
d="M432 847q-66 -154 -136.5 -302t-134.5 -300l4 -2l4 -2l30 39q53 69 104 138t108 135q45 52 95 99t100 95q22 22 50 22q43 -2 36 -42q-2 -11 -5.5 -22t-7.5 -22q-23 -69 -52 -135t-62 -131l-18 -36q16 7 25 16l17 17q39 38 81.5 70.5t88.5 61.5q14 9 29 13.5t32 2.5
q20 -2 29 -11t6 -28q-3 -26 -9 -51t-13 -49q-13 -43 -27 -85t-27 -84q-5 -14 -6.5 -27.5t6.5 -28.5q14 -2 24 5.5t19 15.5q48 38 94.5 77t93.5 78q15 13 29.5 26.5t29.5 26.5q7 5 15.5 10t21.5 13q-2 -13 -2.5 -20.5t-3.5 -12.5q-16 -24 -38 -47q-38 -38 -75.5 -76
t-76.5 -76q-17 -16 -36 -29t-38 -27q-19 -12 -39.5 -15.5t-41.5 -1.5q-39 3 -61.5 29.5t-17.5 65.5q2 17 6 32.5t9 30.5q12 33 25 66t26 65l18 52q-14 -9 -22.5 -14.5t-15.5 -10.5q-69 -57 -132 -118.5t-114 -136.5q-17 -23 -35.5 -30t-44.5 1q-4 1 -12 7q-3 2 -7 10
q3 8 5.5 16t7.5 16q28 56 57 110t57 110q29 58 56 115.5t55 116.5q3 7 6 15.5t8 23.5q-13 -9 -21 -14.5t-15 -10.5q-52 -46 -97.5 -97t-87.5 -107q-85 -114 -162 -231.5t-148 -241.5q-11 -20 -25.5 -32t-40.5 -8q-20 3 -27.5 11.5t-3.5 28.5q7 51 19 99t32 95
q28 66 57 130.5t60 129.5q36 75 74 148.5t77 146.5q10 20 22.5 38.5t26.5 35.5q13 16 24.5 17.5t38.5 -8.5z" />
    <glyph glyph-name="N" unicode="N" horiz-adv-x="637" 
d="M493 119q24 9 40.5 21t30.5 26q53 54 104.5 107t104.5 107q8 8 15.5 17.5t15.5 17.5q4 3 10 5t15 6q-2 -10 -2 -16t-2 -10q-8 -12 -15.5 -23.5t-16.5 -22.5q-38 -46 -76.5 -91t-78.5 -90q-21 -24 -44.5 -44.5t-50.5 -37.5q-43 -24 -90 -18q-48 8 -53 56q-2 33 2.5 65.5
t12.5 64.5q20 80 50.5 155t65.5 150q7 16 15 32t11 39q-12 -8 -21.5 -13.5t-17.5 -11.5q-43 -32 -80 -70.5t-71 -81.5q-55 -70 -104 -143.5t-95 -150.5q-15 -26 -31 -51.5t-33 -51.5q-12 -19 -30 -25t-39 -3t-30 13.5t-4 31.5q6 29 14 56.5t17 55.5q48 136 108.5 264
t135.5 250q6 10 13 19.5t15 17.5q4 4 12 5t13 -1t7.5 -10t0.5 -13q-4 -14 -9.5 -28.5t-11.5 -28.5q-35 -81 -69.5 -160.5t-69.5 -160.5q-18 -43 -28 -91q5 5 9.5 10.5t8.5 10.5q77 113 162 212q48 55 103 98.5t114 84.5q11 7 23.5 10.5t24.5 5.5q21 2 32.5 -10t9.5 -33
q-2 -17 -6 -34t-9 -34q-23 -69 -45.5 -135.5t-44.5 -135.5q-11 -37 -20 -74t-18 -75q-2 -7 -1 -14.5t1 -20.5z" />
    <glyph glyph-name="O" unicode="O" horiz-adv-x="543" 
d="M468 504q8 -14 14 -27.5t13 -27.5q49 -98 -1 -198q-29 -57 -67.5 -106t-89.5 -88q-90 -71 -202 -50q-86 16 -117 101q-15 42 -17.5 84.5t4.5 86.5q18 102 70 197q53 96 119.5 180.5t153.5 153.5q31 25 65.5 43t76.5 23q32 3 64 -6q32 -10 50.5 -37.5t18.5 -63.5
q0 -95 -62 -172q-14 -19 -31 -34.5t-34 -32.5q-7 -6 -13.5 -12t-14.5 -14zM445 537q44 32 76.5 73t46.5 96q5 17 5 34.5t-2 34.5q-2 12 -7.5 24t-13.5 22q-14 17 -29.5 20.5t-36.5 -7.5q-35 -18 -61 -42q-103 -97 -177 -210t-116 -249q-12 -40 -15.5 -80t0.5 -82
q5 -46 28 -84q15 -23 32.5 -29t43.5 5q13 5 25 12.5t23 15.5q88 66 149 160q31 46 38 100q5 32 -5 67t-31 58q-10 -4 -19.5 -7.5t-19.5 -5.5q-5 -1 -10 1.5t-13 4.5q14 13 25.5 23t22.5 21q-8 8 -13 15t-11 12q-6 7 -13 12.5t-15 12.5q14 3 22.5 4t17 -1.5t20.5 -10
t33 -20.5z" />
    <glyph glyph-name="P" unicode="P" horiz-adv-x="705" 
d="M449 818q-15 -51 -35.5 -96.5t-40.5 -91.5q-19 -46 -38.5 -91t-41.5 -96q15 5 21.5 13.5t12.5 16.5q62 78 129 150t144 137q21 18 44 34.5t46 31.5q21 14 44.5 20t49.5 3q41 -5 59.5 -29.5t8.5 -64.5q-5 -19 -12.5 -37.5t-17.5 -35.5q-45 -80 -109 -139t-143 -104
q-11 -6 -23.5 -10t-25.5 -7q-16 -3 -31 2q-6 2 -12 7t-7 10q-2 11 5.5 15t15.5 3q15 -1 25.5 5t21.5 14q121 89 198 215q11 19 18.5 40t14.5 42q2 7 0.5 15t-2.5 17q-17 2 -29.5 -5.5t-23.5 -15.5q-31 -24 -62 -49t-60 -52q-70 -66 -132 -138.5t-119 -150.5
q-81 -114 -153 -234q-23 -38 -41.5 -78t-37.5 -80q-29 -58 -88 -37q-14 5 -19 12.5t-1 22.5q6 20 12.5 40t14.5 39q34 82 67.5 164t69.5 163t76 160.5t86 155.5q12 20 25.5 39t27.5 38q11 14 27 20.5t41 -3.5z" />
    <glyph glyph-name="Q" unicode="Q" horiz-adv-x="623" 
d="M253 -30q32 -19 60.5 -36t57.5 -32q85 -43 172 -50t178 18q11 4 23 8.5t29 -3.5q-50 -48 -111 -60q-109 -20 -209 -1.5t-194 77.5q-11 8 -21.5 14.5t-21.5 13.5q-23 15 -48 17.5t-51 -2.5q-22 -4 -39 -14.5t-26 -32.5l-3 -9q-9 -17 -28 -12q-18 3 -20 22q-3 20 5 35
t25 23q19 9 39 15.5t40 13.5q8 2 16 2.5t18 2.5q-2 5 -3.5 8t-3.5 5q-47 29 -66 72t-23 94q-5 46 1.5 90.5t18.5 89.5q39 148 111 277t171 245q32 38 70 68.5t83 52.5q30 14 61.5 21t65.5 2q39 -5 61 -27.5t22 -61.5q1 -20 -2.5 -39.5t-10.5 -37.5q-20 -52 -43.5 -101
t-55.5 -95q-13 -18 -16.5 -34.5t4.5 -38.5q18 -52 15.5 -103.5t-17.5 -103.5q-20 -72 -52 -137.5t-74 -126.5q-17 -26 -37 -48t-46 -39q-13 -9 -25 -15t-26.5 -11t-32 -8.5t-41.5 -7.5zM566 644q38 49 66.5 98.5t40.5 106.5q4 20 3 41.5t-6 41.5q-6 30 -27.5 40.5t-50.5 0.5
q-25 -8 -47 -20.5t-42 -29.5q-33 -27 -60 -59t-49 -68q-28 -44 -54 -87.5t-49 -89.5q-46 -89 -79 -182t-45 -193q-5 -42 -3 -82t18 -79q17 -40 45 -55t72 15q23 14 42.5 32.5t36.5 38.5q42 50 74 105.5t56 115.5q19 48 29 96t5 100q-1 6 -3.5 12.5t-4.5 14.5
q-12 -6 -22 -13.5t-20.5 -14.5t-22.5 -12.5t-28 -6.5q11 10 18.5 16.5t14.5 13.5q9 8 18.5 17t18.5 18q22 20 7 46q-8 14 -16.5 28t-17.5 29q14 7 24.5 6t20 -7t18.5 -15.5t19 -18.5z" />
    <glyph glyph-name="R" unicode="R" horiz-adv-x="637" 
d="M395 387q3 -3 4.5 -5.5t3.5 -3.5q20 -9 32 -16.5t19 -18t8.5 -25t0.5 -36.5l-3 -84q0 -39 24 -74q11 -15 24 -22.5t32 -5.5q26 2 50.5 7t47.5 19q9 5 18.5 8.5t19.5 -7.5q7 -7 2 -18t-20 -18q-63 -30 -127.5 -37.5t-130.5 18.5q-32 12 -47.5 39t-17.5 61q-1 21 1 42l4 42
q1 19 2 37t3 37q-17 8 -31.5 15t-31.5 15q-24 -43 -47.5 -85t-46.5 -86q-29 -54 -56 -108t-54 -109q-8 -17 -19 -26.5t-31 -7.5q-17 2 -23.5 9.5t-3.5 24.5q9 44 17.5 87t20.5 86q46 160 91.5 318.5t102.5 315.5q7 20 15.5 39t16.5 39q9 20 25 28t36 7q29 -1 41 -15t2 -42
q-6 -16 -11.5 -31t-10.5 -31l-126 -332q-8 -21 -14 -43t-5 -47q9 14 17.5 27.5t16.5 27.5q45 73 89 145.5t99 138.5q35 44 73 85t78 81q15 16 33.5 28t37.5 24q28 16 59 10q23 -5 34.5 -19.5t6.5 -37.5q-7 -36 -23 -71q-42 -89 -97.5 -167t-132.5 -141q-21 -17 -41 -35
l-40 -36q-5 -5 -9 -10zM314 399q26 22 50.5 43t49.5 41q110 87 181 206q21 34 39 69t37 70q5 11 8.5 23t-4.5 26q-15 -2 -26 -10.5t-22 -17.5q-37 -29 -67.5 -64t-59.5 -73q-54 -71 -97.5 -147t-88.5 -154q-1 -2 -0.5 -4.5t0.5 -7.5z" />
    <glyph glyph-name="S" unicode="S" horiz-adv-x="580" 
d="M608 705q6 11 11.5 21.5t12.5 21.5q18 31 30.5 63.5t18.5 67.5q5 23 2.5 46t-18.5 43q-42 54 -91 7q-20 -20 -34 -45q-53 -101 -74 -207.5t-6 -221.5q1 -5 2 -9t3 -9q0 -1 4 -5q4 2 8 3t8 4l162 117q7 5 13.5 9.5t13.5 8.5t14 2.5t10 -8.5q2 -5 2.5 -11.5t-2.5 -10.5
q-8 -10 -16 -19.5t-18 -17.5q-39 -33 -79 -66t-79 -65q-4 -3 -7.5 -6.5t-7.5 -5.5q-11 -8 -14 -17.5t-2 -23.5q3 -28 5.5 -55.5t1.5 -55.5q-1 -27 -4.5 -53.5t-11.5 -52.5q-20 -72 -55.5 -135.5t-84.5 -120.5q-32 -38 -72.5 -62t-90.5 -32q-30 -5 -60 -3q-118 11 -101 126
q3 22 10.5 43.5t15.5 41.5q20 46 48.5 85t60.5 77q48 55 97.5 107t106.5 98q17 13 22 26.5t2 33.5q-3 28 -5.5 55.5t-4.5 55.5q-4 103 23.5 196.5t80.5 181.5q11 17 25 33.5t29 30.5q25 25 55.5 32.5t65.5 2.5q43 -7 70.5 -40.5t25.5 -79.5q-5 -104 -63 -188
q-10 -15 -24 -22q-6 -3 -13.5 -2.5t-15.5 -0.5q-2 3 -6 11zM375 304q-11 -8 -18 -13.5t-12 -10.5q-46 -44 -88 -90t-80 -97q-41 -55 -74 -113q-9 -18 -15.5 -39t-8.5 -41q-3 -38 18 -52.5t57 -0.5q28 11 49 28.5t38 40.5q51 66 84.5 139.5t47.5 155.5q3 22 4 44.5t-2 48.5z
" />
    <glyph glyph-name="T" unicode="T" horiz-adv-x="471" 
d="M586 858q-80 -11 -155.5 -22t-147.5 -36q-23 -8 -45.5 -17.5t-43.5 -22.5q-106 -67 -118 -191q-1 -9 -2.5 -18t-3.5 -17q-62 -4 -69 46q-2 12 -0.5 25t3.5 26q9 37 28.5 68t48.5 57q33 31 72 51.5t82 34.5q75 23 151.5 37t154.5 20q17 2 33 3.5t32 3.5q27 2 47 17
q17 13 36 15t38 -12q12 -8 24.5 -8.5t24.5 1.5q35 5 69 10.5t69 10.5q3 1 5 1.5t4 1.5q9 2 17 0.5t10 -11.5q3 -11 -3.5 -16t-13.5 -7q-20 -8 -45 -13q-35 -5 -69.5 -10t-69.5 -9q-23 -2 -38.5 -11.5t-27.5 -30.5q-45 -75 -91.5 -147.5t-88.5 -147.5q-40 -70 -75 -142.5
t-71 -144.5q-23 -45 -45 -89.5t-44 -90.5q-31 -62 -78.5 -107t-101.5 -86q-14 -11 -29 -13.5t-34 8.5q2 5 3.5 10.5t4.5 9.5q60 73 105 154.5t84 166.5q57 121 120 235.5t132 228.5q25 41 51.5 80t52.5 80q2 2 3.5 6z" />
    <glyph glyph-name="U" unicode="U" horiz-adv-x="943" 
d="M884 614q-5 -16 -9.5 -31.5t-10.5 -30.5q-26 -67 -52.5 -132.5t-52.5 -132.5q-12 -32 -21.5 -64.5t-17.5 -64.5q-5 -20 -5.5 -41t7.5 -43q19 3 32.5 12.5t25.5 19.5q38 32 74.5 64t72.5 66q38 35 74 71.5t73 72.5q10 10 20.5 19t29.5 12q-2 -8 -2.5 -13.5t-2.5 -9.5
q-8 -11 -16.5 -22.5t-17.5 -22.5l-200 -228q-15 -17 -31.5 -32t-33.5 -29q-37 -32 -84 -37q-15 -2 -30 -0.5t-30 4.5q-55 14 -57 71q-1 23 1.5 46t5.5 46q2 14 5 27.5t2 28.5q-5 -6 -9.5 -12t-9.5 -12q-47 -65 -93 -129t-95 -127q-20 -26 -43.5 -48.5t-48.5 -44.5
q-32 -29 -71.5 -37.5t-81.5 -3.5q-56 8 -80 57q-25 53 -10 105q8 29 17 56.5t22 53.5q21 45 45 87t46 87q37 75 69 158q8 18 11.5 37.5t4.5 39.5q2 28 -10.5 37t-38.5 -2l-12 -6q-45 -26 -84.5 -58.5t-71.5 -74.5q-36 -46 -37 -104v-34q-9 6 -15.5 9t-8.5 8q-8 17 -7 35.5
t6 37.5q15 51 50 94q32 38 69.5 66t81.5 49q36 17 78 14q32 -2 51.5 -19.5t21.5 -50.5q2 -22 0 -44t-6 -44q-10 -48 -29.5 -91t-39.5 -87q-18 -41 -36.5 -80.5t-34.5 -81.5q-10 -26 -16.5 -52t-11.5 -52q-4 -21 -1 -42t18 -41q8 5 16.5 8t14.5 9l54 52t50 55
q86 104 169.5 208.5t168.5 209.5q30 38 60.5 74t53.5 79q4 8 9.5 14t11.5 11q22 22 54 1z" />
    <glyph glyph-name="V" unicode="V" horiz-adv-x="590" 
d="M293 602q7 -17 1.5 -29t-10.5 -23q-19 -42 -39 -82.5t-38 -82.5q-20 -48 -39.5 -95t-37.5 -95q-7 -20 -11 -41t-6 -41q-3 -23 1 -46t25 -41q20 4 35.5 13.5t29.5 21.5q34 29 66.5 58.5t64.5 61.5q64 66 121 136.5t106 148.5q63 101 95 209.5t30 228.5v21t-2 21
q-2 17 -4 28t-7 18.5t-14 13.5t-23 13q31 12 49.5 6t30.5 -33q12 -29 17 -62q11 -77 3.5 -151.5t-27.5 -149.5q-24 -88 -63.5 -168t-93.5 -153q-54 -72 -113 -137.5t-126 -124.5q-34 -30 -72.5 -50.5t-85.5 -22.5q-22 -1 -44 2.5t-43 9.5q-32 8 -48 31t-19 55q-8 63 16 119
q18 45 36.5 88.5t41.5 86.5q26 48 54.5 94.5t57.5 93.5q5 9 11.5 17.5t13.5 16.5q25 29 60 15z" />
    <glyph glyph-name="W" unicode="W" horiz-adv-x="808" 
d="M697 1105q8 5 13 8.5t10 4.5q18 5 35 0.5t31 -15.5q11 -8 21 -18t18 -22q57 -86 83.5 -179.5t17.5 -196.5q-6 -64 -23.5 -125.5t-45.5 -120.5q-71 -156 -185 -280q-28 -30 -59 -56t-66 -47t-72 -27.5t-77 -0.5q-40 5 -60 28.5t-18 63.5q1 20 5.5 39t9.5 38q4 14 8.5 27
t6.5 29l-16 -16l-141 -169q-10 -11 -20 -20.5t-21 -17.5q-12 -8 -26 -15.5t-28 -10.5q-33 -8 -58 7.5t-34 48.5q-12 46 0 93q9 34 23 66q101 227 250 420q8 11 17 20l18 18q5 5 11 9t13 6q9 3 18 2.5t16 -8.5t5 -15.5t-6 -15.5q-29 -51 -57 -102l-56 -102
q-32 -57 -65.5 -111t-58.5 -114q-13 -30 -25 -60.5t-17 -63.5q-1 -8 -0.5 -15.5t0.5 -18.5q17 3 26.5 12.5t18.5 17.5q71 71 137.5 143.5t128.5 151.5q23 31 46.5 61.5t47.5 61.5q11 15 27 24q20 10 34 -7q4 -5 4.5 -13t-1.5 -13q-11 -28 -21.5 -54.5t-21.5 -54.5
q-20 -52 -40.5 -104t-39.5 -105q-5 -14 -7.5 -29t-4.5 -30q-2 -13 1.5 -25.5t15.5 -24.5q11 6 22.5 11t21.5 13l52 40t49 42q63 60 115.5 126t94.5 142q33 60 52.5 124t27.5 133q3 32 0.5 63t-8.5 62q-9 51 -24.5 98t-39.5 92l-15 24q-11 16 -19 26t-18 15.5t-23 8t-34 3.5z
" />
    <glyph glyph-name="X" unicode="X" horiz-adv-x="612" 
d="M404 599q11 13 18.5 22t15.5 18q48 54 94 107t94 107q11 11 22.5 21t23.5 19q8 7 18 9.5t22 -5.5q2 -15 -6 -26l-16 -22q-38 -51 -76 -101t-76 -101q-26 -35 -52 -69t-53 -68q-20 -24 -14 -56q11 -69 26.5 -137t45.5 -133q8 -17 16 -33.5t18 -32.5q9 -15 20 -28.5
t22 -27.5q-14 -17 -29.5 -15t-29.5 12q-14 11 -27.5 24t-24.5 28q-35 51 -63 104t-49 111l-14 39q-8 -7 -13.5 -12t-10.5 -10q-57 -75 -112 -149.5t-112 -149.5q-11 -14 -21.5 -28t-21.5 -27q-8 -9 -17 -12.5t-22 6.5q2 6 3.5 12.5t4.5 11.5q69 108 137.5 214.5t138.5 213.5
q12 19 16.5 37t2.5 41q-8 60 -17.5 119.5t-26.5 119.5q-1 4 -2.5 8.5t-3.5 12.5q-8 -5 -13.5 -7.5t-10.5 -7.5q-35 -33 -65 -69t-47 -84q-5 -15 -19 -19t-31 3q-26 11 -16 38q24 60 59.5 111t89.5 89q23 15 47.5 19t50.5 0q24 -4 40 -18t27 -35q15 -29 19.5 -59.5t8.5 -62.5
q2 -16 1 -33.5t10 -38.5z" />
    <glyph glyph-name="Y" unicode="Y" horiz-adv-x="620" 
d="M587 647q-14 -13 -24 -21.5t-19 -17.5q-51 -48 -104.5 -93t-113.5 -83q-23 -15 -48.5 -27t-51.5 -22q-16 -5 -34 -5t-35 2q-44 7 -46 56q-1 15 -0.5 30.5t3.5 29.5q25 119 94 223q5 7 10 13.5t11 11.5q8 6 17 7.5t20 -6.5q4 -13 -1 -25.5t-10 -25.5q-13 -40 -26 -79.5
t-25 -80.5q-5 -17 -6.5 -34.5t-3.5 -34.5q-1 -9 0.5 -18t3.5 -19q17 1 28 7t21 13q46 33 91.5 65.5t88.5 68.5q63 54 123.5 110.5t121.5 113.5q17 17 34.5 23.5t40.5 -1.5q12 -4 18 -12t4 -19q-2 -14 -5.5 -27.5t-8.5 -26.5q-18 -44 -35.5 -87t-37.5 -85q-48 -105 -96 -208
t-99 -206q-42 -86 -90 -167t-105 -157q-24 -32 -50.5 -61.5t-54.5 -58.5q-17 -19 -39 -32.5t-48 -19.5q-9 -2 -18.5 -3.5t-18.5 -0.5q-55 1 -62 57q-3 27 0.5 53.5t12.5 52.5q4 11 8 21.5t10 21.5q44 85 97.5 162t119.5 146q15 15 32 27.5t34 24.5q9 6 20.5 10t27.5 -2
l-28 -27q-20 -20 -41.5 -38.5t-39.5 -39.5q-50 -57 -91.5 -118.5t-77.5 -127.5q-15 -28 -26 -57.5t-15 -61.5q-3 -21 0.5 -32t17.5 -32q17 0 28.5 10.5t19.5 21.5q23 32 46.5 64.5t43.5 66.5q54 90 98 183.5t89 187.5q48 100 96 198t96 197q2 3 3 7t5 14z" />
    <glyph glyph-name="Z" unicode="Z" horiz-adv-x="820" 
d="M796 840q-13 -2 -22.5 -2.5t-17.5 -2.5q-67 -14 -133 -28t-132 -26q-32 -6 -65 -7t-65 -3q-20 -1 -40 -1.5t-40 -2.5q-63 -7 -102.5 -50t-40.5 -106q-1 -7 -1 -14v-17q-8 0 -14.5 -1t-11.5 2q-7 4 -12.5 11t-6.5 14q-5 26 1 50q29 107 134 137q16 5 32 8t32 2
q92 -2 179.5 14t175.5 36q101 24 206 42q12 3 25 2.5t25 -2.5t16 -11.5t-1 -20.5q-3 -8 -7 -14.5t-9 -13.5q-68 -97 -135 -193.5t-136 -193.5q-41 -57 -83.5 -112t-84.5 -111l-8 -12q13 -11 34 -19.5t47.5 -15.5t56.5 -12t60 -7q54 -4 102.5 8.5t97.5 34.5q5 -8 10 -14
t3 -11q-2 -17 -16 -26q-22 -15 -46.5 -22t-50.5 -9q-82 -5 -163 -1t-160 31q-17 5 -29 2.5t-26 -13.5q-44 -38 -93 -65.5t-106 -42.5q-28 -7 -55 -11t-56 3q-42 10 -57 36.5t2 67.5q13 31 35.5 51.5t51.5 36.5q53 28 108.5 35.5t113.5 -0.5q4 0 7 -1t7 -1q2 -1 5 -0.5t8 0.5
q10 12 20.5 25.5t20.5 27.5q93 137 192 265t205 254q3 3 5.5 7.5t7.5 12.5zM292 192q-27 10 -59 7.5t-62 -14.5t-54 -32.5t-33 -44.5q-4 -10 -4.5 -20t7.5 -19q22 -3 48.5 5t53.5 24.5t53.5 40t49.5 53.5z" />
    <glyph glyph-name="a" unicode="a" horiz-adv-x="580" 
d="M346 311q15 8 21.5 17.5t12.5 17.5q13 19 25.5 37.5t26.5 35.5q17 20 37 20t42 -20q-5 -11 -10.5 -22.5t-11.5 -23.5q-23 -43 -43.5 -87t-33.5 -91q-5 -15 -7.5 -30t0.5 -34q7 4 12 5.5t10 4.5q12 7 20 15q43 36 83.5 69t79.5 65.5t79 65.5t84 70q8 6 16.5 12.5
t22.5 17.5q-2 -11 -3 -17t-3 -8q-8 -10 -16 -19t-17 -18q-13 -12 -22.5 -20.5t-18 -16.5t-18 -16.5t-22.5 -21.5q-26 -26 -51.5 -53.5t-51.5 -55.5q-26 -27 -53.5 -52.5t-58.5 -47.5q-42 -28 -92 -27q-71 5 -74 73q-1 5 -0.5 10.5t0.5 15.5q-10 -10 -15.5 -16.5t-11.5 -11.5
q-20 -18 -39.5 -36t-40.5 -34q-32 -23 -69 -31.5t-78 -0.5q-36 7 -51.5 26.5t-10.5 55.5q2 27 12 51q26 61 61 114.5t83 99.5q27 26 57.5 43t66.5 24q27 5 52 0q46 -8 46 -54q-1 -15 -4.5 -30t-6.5 -29q-2 -10 -6.5 -19.5t-9.5 -22.5zM106 106q8 3 14 6t13 6
q75 42 121.5 105.5t70.5 145.5q5 21 3 43q-1 10 -5.5 17.5t-15.5 11.5q-18 -5 -34.5 -14t-30.5 -23q-53 -54 -89 -116t-53 -134q-3 -11 -3 -22.5t9 -25.5z" />
    <glyph glyph-name="b" unicode="b" horiz-adv-x="541" 
d="M127 78q20 0 31 8t20 17q42 44 66 95.5t36 110.5q3 13 -1.5 23t-10.5 21q-14 25 16 34q27 9 49 -7q28 -19 56.5 -21t59.5 4q62 11 121 27t118 36q16 5 30 13t29 15l10 6t11 5q4 1 9 0.5t7 -3.5q2 -4 3.5 -10t-0.5 -10q-6 -13 -18 -21l-18 -10t-19 -10
q-75 -29 -151.5 -52.5t-157.5 -35.5q-20 -3 -39.5 -3t-40.5 -2l-9 -55q-8 -43 -25.5 -82t-43.5 -74q-21 -29 -49 -49t-65 -26t-73 7q-46 16 -48 63q-1 21 0 42.5t6 41.5q36 166 127 314q176 283 451 481q22 16 45.5 29t46.5 25q36 18 78 12q54 -9 46 -63q-2 -11 -4.5 -20.5
t-6.5 -20.5q-6 -19 -17 -38q-80 -143 -189 -256.5t-254 -193.5q-28 -15 -56.5 -27.5t-60.5 -15.5q-19 -1 -30 -19q-74 -115 -89 -248q-2 -14 0 -28t4 -29zM756 987q-5 -1 -8.5 -1t-5.5 -2q-23 -14 -42 -30q-250 -199 -418 -467q-4 -5 -6 -11l-4 -12q32 14 61 30t55 34
q91 61 168 134.5t137 164.5q17 26 31 54t28 57q6 11 8.5 23.5t-4.5 25.5z" />
    <glyph glyph-name="c" unicode="c" horiz-adv-x="407" 
d="M233 234q10 25 22.5 48.5t23 47t16.5 49t2 55.5q-11 -3 -19 -4.5t-13 -6.5q-15 -16 -30.5 -32t-26.5 -35q-28 -48 -47.5 -98.5t-33.5 -104.5q-5 -19 -7 -39t8 -40q17 -2 29 6.5t24 16.5q62 42 119 87t111 96q32 30 48.5 44t30 25t30.5 25t49 44q9 8 19 17t29 11
q-4 -9 -6 -15t-6 -11q-55 -60 -94 -104.5t-77 -84t-83 -78t-111 -86.5q-22 -16 -45 -29t-49 -19q-41 -10 -83 4q-61 20 -63 84q0 26 6 50q33 122 112 219q20 24 44 42t51 32q39 19 77 13q55 -6 46 -56q-8 -42 -22 -81.5t-37 -75.5q-6 -10 -15.5 -16t-28.5 0z" />
    <glyph glyph-name="d" unicode="d" horiz-adv-x="722" 
d="M932 429q-7 -8 -13 -15.5t-14 -14.5q-36 -33 -57.5 -55.5t-40.5 -42.5t-40.5 -42t-58.5 -55q-56 -52 -122 -93q-35 -22 -73 -30t-79 3q-40 10 -58 32.5t-19 63.5v55q-6 -3 -11.5 -5.5t-10.5 -6.5q-25 -21 -49.5 -42.5t-50.5 -41.5q-59 -42 -133 -36q-81 8 -71 87
q1 4 1 7.5t2 6.5q17 58 44.5 110t70.5 96q26 28 58.5 41.5t71.5 10.5q32 -2 45.5 -16t9.5 -46q-4 -35 -16 -67.5t-34 -61.5q-3 -5 -8.5 -8t-13.5 -10q-1 11 -2 18.5t1 12.5q7 23 14.5 44.5t14.5 44.5q3 10 4.5 16.5t1.5 12t-2 12t-5 17.5q-11 5 -21 1.5t-18 -9.5
q-11 -8 -21.5 -17.5t-18.5 -20.5q-65 -83 -86 -185q-3 -14 -2 -20t9 -25q13 -2 24 4t22 13q57 35 108 77.5t102 86.5q7 6 11.5 14t9.5 16q51 87 110.5 165.5t125.5 153.5q27 31 56 59.5t58 57.5q17 17 38 29.5t46 16.5l14 3q47 5 65.5 -18t2.5 -67q-5 -14 -10.5 -26
t-12.5 -25q-42 -78 -93 -148t-110 -136q-17 -19 -35 -35.5t-37 -32.5q-8 -7 -19 -12t-22 -9q-6 -2 -13.5 1t-14.5 5q1 17 9 25t16 17q38 42 76 82.5t74 84.5q28 34 53.5 70t51.5 73q10 14 17 30t15 32q5 11 6.5 23.5t-6.5 26.5q-17 -7 -28.5 -18.5t-21.5 -24.5
q-48 -63 -95 -124.5t-92 -125.5q-27 -39 -51.5 -80.5t-47.5 -83.5q-20 -38 -34 -79t-20 -84q-2 -14 -1 -27.5t11 -27.5q30 8 56 24t50 35q56 44 111 88t112 89q17 13 20.5 15.5t4 3t3.5 2.5t21 16q13 10 26.5 18t30.5 10z" />
    <glyph glyph-name="e" unicode="e" horiz-adv-x="409" 
d="M609 434q-3 -20 -12 -28.5t-17 -15.5q-47 -39 -75 -64.5t-49 -44.5t-39.5 -35t-45.5 -36q-36 -29 -74.5 -55t-77.5 -52q-29 -20 -61.5 -29t-67.5 -11q-12 1 -24.5 2.5t-25.5 5.5q-18 5 -29 18t-11 32q0 18 1.5 35.5t6.5 34.5q26 78 72 141t109 115q18 15 39 24t47 7
q68 -3 39 -63q-15 -33 -35 -61t-49 -50q-18 -14 -38 -27t-40 -24q-24 -13 -31 -38q-6 -21 -9.5 -42t5.5 -42q15 -5 26 -0.5t20 10.5q29 17 56.5 33.5t54.5 36.5q29 21 46.5 33t28.5 19t19 11.5t19.5 11.5t29 19t46.5 34q26 19 51.5 36.5t51.5 35.5q8 6 18.5 10.5t24.5 12.5z
M277 452q-25 -8 -38.5 -26.5t-26.5 -35.5q-14 -17 -21.5 -28t-12 -19.5t-6.5 -16.5t-4 -19q67 33 102 97q6 10 10.5 21t-3.5 27z" />
    <glyph glyph-name="f" unicode="f" horiz-adv-x="415" 
d="M171 316q42 -16 79 -15t74 11q67 18 129 46.5t122 63.5q14 8 26 16t26 16q5 3 11 4.5t17 4.5q-5 -10 -7 -16t-6 -9q-12 -11 -24.5 -21t-26.5 -19q-52 -35 -106.5 -63.5t-113.5 -50.5q-30 -11 -62 -18.5t-67 -16.5q1 -8 1.5 -19t2.5 -22q5 -37 0.5 -72.5t-15.5 -70.5
q-35 -107 -107 -202q-35 -48 -82 -70.5t-108 -15.5q-52 6 -76 37t-16 82q8 56 29 106t51 97q67 106 144 207q51 65 103 127t106 125q18 21 39 39.5t42 36.5q13 11 28 15.5t34 -7.5q-18 -30 -41 -55t-43 -51l-40 -52l-40 -52q-20 -27 -40 -55.5t-43 -60.5zM148 276
q-7 -8 -12.5 -13.5t-10.5 -12.5q-15 -21 -29 -42t-28 -43q-26 -42 -50 -84t-41 -89q-18 -51 -29 -102q-4 -16 -1 -32t23 -28q16 12 31.5 23t29.5 25q46 47 79 101t52 117q8 26 12.5 52t2.5 53q-2 20 -8 39t-21 36z" />
    <glyph glyph-name="g" unicode="g" horiz-adv-x="532" 
d="M349 344q-23 -14 -42 -24.5t-37 -20.5q-26 -14 -54 -21t-58 -3q-11 2 -21 4t-19 7q-37 19 -26 59q2 8 5.5 15.5t7.5 14.5q20 32 45 57.5t57 43.5q39 22 81 19q22 -2 33 -15.5t7 -35.5q-2 -16 -7.5 -31.5t-11.5 -35.5q43 29 79.5 60.5t69.5 66.5q7 7 13 14t14 12
q11 8 25 7.5t23 -8.5t8 -18.5t-6 -19.5q-16 -35 -31.5 -70.5t-32.5 -70.5q-7 -14 -15 -29t-18 -35q10 3 16.5 5t11.5 5q60 29 119.5 58t120.5 58q11 6 24 11.5t30 -2.5q-5 -15 -16 -20.5t-22 -10.5q-60 -32 -118 -63t-118 -61q-43 -21 -73.5 -50.5t-52.5 -73.5
q-39 -76 -82.5 -149t-88.5 -146q-30 -51 -66 -96.5t-78 -86.5q-18 -17 -37.5 -32t-39.5 -29q-25 -16 -52 -20t-56 1q-57 9 -52 65q2 18 6 36.5t12 35.5q13 29 27.5 56.5t32.5 53.5q59 87 132 158t158 130q45 31 79.5 68t57.5 86q7 14 15 26.5t16 25.5q1 2 1.5 5.5t3.5 13.5z
M285 362q-3 9 -4 14t-1 9.5t1.5 9.5t4.5 14q5 15 9 30t-7 30q-31 -4 -59 -25t-48 -55q-11 -17 -16 -35t6 -38q15 0 27.5 2.5t25.5 7.5t27.5 14t33.5 22zM-109 -371q11 8 19.5 12.5t14.5 10.5q17 18 33.5 36t30.5 38q58 78 106 161.5t96 168.5q0 1 -3 11q-68 -58 -127.5 -121
t-106.5 -138q-16 -26 -29 -53t-25 -55q-7 -14 -11 -31t2 -40z" />
    <glyph glyph-name="h" unicode="h" horiz-adv-x="588" 
d="M60 90q7 5 13.5 9t12.5 9q35 27 68 54t68 53q20 15 42.5 28t45.5 25q19 11 39 14q26 4 42.5 -9t16.5 -40q-1 -28 -4.5 -55.5t-6.5 -55.5l-7 -59q11 8 19 13t14 11q69 68 136.5 135t135.5 135q17 17 34 35t34 35q8 8 18 15t27 4q-3 -8 -4.5 -15t-5.5 -13
q-17 -23 -34 -44.5t-35 -44.5q-49 -61 -99 -121t-107 -114q-18 -17 -37 -32.5t-39 -29.5q-35 -26 -79 -23q-29 2 -43.5 16.5t-12.5 43.5q2 27 6 53.5t9 52.5q2 15 6 30t9 35q-11 -5 -17.5 -7.5t-11.5 -6.5q-24 -21 -48 -41.5t-47 -41.5q-26 -23 -49.5 -46.5t-49.5 -45.5
q-15 -13 -32 -23.5t-35 -17.5q-13 -5 -27 -4.5t-28 2.5q-38 6 -37 45q2 20 5 39.5t8 38.5q17 62 42 119.5t56 112.5q58 103 122 199.5t139 187.5q21 26 45 49.5t50 45.5q29 24 66 34q38 10 58.5 -9t13.5 -57q-8 -47 -29 -88q-60 -115 -137.5 -214t-177.5 -182
q-17 -14 -36 -25t-38 -24q-7 -5 -15 -10.5t-11 -13.5q-17 -38 -33 -77l-32 -78q0 -1 4 -11zM506 841q-14 -14 -25.5 -23.5t-19.5 -20.5q-17 -20 -34.5 -40.5t-31.5 -43.5q-51 -81 -101 -162t-101 -163q-2 -3 -3 -7.5t-3 -12.5q8 5 11.5 7.5t5.5 5.5q71 70 135 144.5
t120 157.5q23 35 41 73q8 18 11 38.5t-5 46.5z" />
    <glyph glyph-name="i" unicode="i" horiz-adv-x="307" 
d="M327 712l-27 -37q-14 -19 -27.5 -37t-27.5 -37q-2 -3 -3.5 -6t-4.5 -5q-5 -3 -12 -6.5t-12 -1.5q-4 2 -6.5 9t-4.5 13q-1 4 1 8.5t4 8.5q12 20 23.5 40t25.5 38q12 15 28.5 19.5t42.5 -6.5zM141 158q23 12 40.5 25t33.5 27q35 31 59 48.5t45 32.5t45 32.5t59 49.5
q14 12 26.5 23.5t26.5 22.5q5 5 12 7.5t19 8.5q-4 -12 -5.5 -19t-5.5 -12q-12 -16 -25.5 -30.5t-26.5 -28.5q-18 -21 -22.5 -26.5t-6.5 -7.5t-6.5 -7.5t-23.5 -25.5q-28 -30 -63 -64t-65 -62q-16 -14 -35 -25.5t-39 -22.5t-42 -12t-44 2q-58 9 -57 68q1 18 3.5 36.5
t6.5 36.5q11 53 34 99.5t52 91.5q7 9 15 17.5t18 14.5q8 7 18.5 8t20.5 -7q11 -7 8.5 -16t-5.5 -18q-10 -27 -21 -54t-19 -55q-9 -32 -16.5 -65.5t-15.5 -66.5q-1 -4 0 -9.5t2 -16.5z" />
    <glyph glyph-name="j" unicode="j" horiz-adv-x="325" 
d="M390 691l-21 -22l-41.5 -41.5t-40.5 -41.5q-4 -3 -6.5 -7t-6.5 -6q-8 -7 -18 -10.5t-20 3.5q-12 8 -9.5 18.5t7.5 18.5q15 23 30 45t34 41q35 38 92 2zM535 438q-4 -20 -13.5 -27t-18.5 -15q-38 -33 -63.5 -55.5t-48.5 -43t-48.5 -43t-63.5 -55.5q-28 -25 -53.5 -52
t-53.5 -53q-16 -14 -26 -32t-17 -38q-21 -65 -47.5 -126.5t-60.5 -121.5q-20 -35 -43 -67t-52 -59q-17 -17 -36.5 -29.5t-42.5 -17.5q-8 -2 -16 -3.5t-16 -0.5q-35 2 -48.5 21t-0.5 51q9 24 21.5 46.5t26.5 44.5q44 68 94.5 130t104.5 122q30 32 44 76q22 72 44.5 142.5
t45.5 141.5q5 14 9 27t10 26q8 18 21 31q13 11 26 6.5t15 -21.5q1 -17 -2 -37q-8 -45 -17 -89.5t-18 -89.5q-2 -8 -3.5 -16t-3.5 -22l42 32q40 31 67 51.5t51.5 39.5t51.5 39.5t67 51.5q10 8 20.5 15t21.5 14q5 3 12.5 3.5t17.5 2.5zM-35 -154q-23 -25 -43.5 -52.5t-37 -54
t-27.5 -50t-15 -40.5q44 42 71.5 91t51.5 106z" />
    <glyph glyph-name="k" unicode="k" horiz-adv-x="592" 
d="M448 862q-18 -45 -41.5 -84.5t-43.5 -79.5t-41 -79t-42 -79q11 -6 15 -0.5t9 9.5q29 27 57.5 54.5t58.5 54.5q9 8 20 15l22 14q13 7 30 12q14 4 27.5 3.5t24.5 -11.5q11 -12 8.5 -25.5t-7.5 -27.5q-23 -51 -54.5 -94.5t-76.5 -78.5q-16 -12 -32.5 -23t-32.5 -23
q-9 -6 -18 -12.5t-19 -14.5q16 -18 24.5 -29.5t12.5 -22.5t5 -25.5t1 -38.5q0 -35 -1 -69.5t-2 -69.5q13 -3 21.5 3.5t16.5 11.5q95 63 185.5 129.5t180.5 137.5q10 8 15.5 12.5t11 7t12 4.5t18.5 5q11 -7 9.5 -15.5t-8.5 -16.5q-12 -14 -25 -27t-27 -26q-49 -42 -98 -82.5
t-99 -81.5q-30 -25 -60 -49t-61 -47q-25 -18 -53 -27.5t-60 -7.5q-84 3 -78 86q2 35 3.5 70t3.5 70q1 17 -2 37q-1 8 -2.5 13t-5 9.5t-9.5 10t-17 13.5l-28 -36q-38 -56 -71 -114.5t-65 -119.5q-15 -29 -30 -57.5t-32 -57.5t-35 -33t-51 13q-5 14 0.5 27t11.5 25
q25 51 49.5 101t50.5 100q62 113 123.5 225t124.5 225q22 38 46 75t48 75q6 9 12 17t14 16q11 10 24 13t32 -9zM249 406q155 78 223 236q-67 -48 -120.5 -109t-102.5 -127z" />
    <glyph glyph-name="l" unicode="l" horiz-adv-x="365" 
d="M173 143q20 0 37 7.5t32 17.5t39 30.5t50.5 43t50 43t37.5 31.5q28 22 53.5 46t51.5 47q10 8 20.5 15t28.5 0q-5 -8 -8 -15.5t-8 -12.5q-22 -23 -54 -55.5t-66.5 -67l-67 -67t-55.5 -53.5q-74 -69 -175 -63q-85 6 -89 88q-2 26 2.5 51t12.5 50q20 66 51 127t68 120
q74 116 165 226q36 42 75 80t83 72q23 18 48.5 32t54.5 20q54 10 78.5 -13.5t13.5 -77.5q-3 -16 -9 -31.5t-15 -28.5q-121 -189 -334 -264q-23 -8 -38.5 -20t-27.5 -33q-29 -52 -56 -104.5t-46 -109.5q-5 -17 -8.5 -34t-7.5 -34q-6 -32 13 -63zM344 584q34 13 72 36t74.5 50
t67 56t49.5 55q15 20 25 42t14 47q2 12 2.5 24.5t-9.5 23.5q-27 -10 -64.5 -43t-78.5 -79t-81 -101.5t-71 -110.5z" />
    <glyph glyph-name="m" unicode="m" horiz-adv-x="853" 
d="M1092 459q2 -3 1.5 -8.5t-2.5 -8.5l-14 -16t-15 -15l-220 -154q-21 -10 -44 -13t-47 4q-25 8 -36.5 21t-13.5 38q-1 14 -0.5 28.5t0.5 31.5q-10 -5 -17.5 -7.5t-14.5 -7.5q-27 -18 -53.5 -37t-53.5 -38q-14 -9 -27 -18t-28 -17q-21 -9 -45 -11q-64 -1 -49 62
q4 17 9.5 33.5t10.5 33.5q2 9 3.5 18.5t3.5 23.5q-30 -14 -52 -30t-41 -35q-35 -35 -68.5 -70t-68.5 -70q-13 -13 -25.5 -25t-26.5 -23q-17 -14 -37 -18.5t-42 3.5q-34 11 -28 46q1 9 5 22q20 65 50 124t68 114q8 11 16 20.5t22 11.5q8 1 16.5 -0.5t13.5 -6.5q4 -3 4 -11.5
t-2 -14.5q-7 -19 -15 -37l-16 -36q-11 -27 -23 -53.5t-23 -53.5q-3 -6 -5.5 -14t-7.5 -22q12 10 19 15t12 10q29 26 57.5 53.5t60.5 52.5q26 20 53 37.5t56 33.5q11 7 25.5 9.5t28.5 1.5q42 -2 42 -45q1 -14 -1 -27.5t-4 -27.5l-6 -27q3 -2 8 -7q14 11 28 21l28 20
q29 18 57.5 35.5t58.5 33.5q12 6 26 9t28 3q49 -1 55 -51q2 -15 2.5 -30t1.5 -30q17 -5 28 2t22 12q39 21 54.5 28.5t22.5 10.5t15 7.5t32 19.5q21 13 40 28.5t39 29.5q14 10 33 15q4 1 9 -1.5t7 -5.5z" />
    <glyph glyph-name="n" unicode="n" horiz-adv-x="677" 
d="M188 298l22 16t23 16l70 46t71 46q35 21 75 22q41 0 60.5 -20.5t15.5 -61.5q-2 -20 -5 -39.5t-5 -39.5q-1 -5 -0.5 -11t0.5 -12q14 -7 24 -0.5t19 11.5q75 43 149.5 86.5t149.5 87.5q9 5 18 10.5t18 9.5q6 2 13.5 2.5t13.5 -1.5q9 -2 12 -10.5t-2 -14.5q-11 -15 -26 -26
q-53 -38 -104.5 -75t-105.5 -73q-26 -17 -54 -32t-56 -29q-26 -12 -53.5 -16t-56.5 2q-31 6 -43 21t-9 47q2 21 6 41.5t8 41.5l7 62q-13 -6 -21.5 -9t-16.5 -8q-65 -45 -127 -91.5t-118 -102.5q-5 -5 -10 -9.5t-10 -9.5q-14 -12 -29.5 -14.5t-32.5 1.5q-39 8 -24 44
q36 79 75 156q11 22 24 42.5t27 41.5q7 13 22 23q11 7 22 0t9 -20q-6 -29 -17 -58q-8 -22 -17 -43.5t-18 -42.5l3.5 -3.5z" />
    <glyph glyph-name="o" unicode="o" horiz-adv-x="363" 
d="M340 336q14 5 24.5 8.5t21.5 8.5q29 13 45 18t28.5 9.5t26.5 12.5t40 27q8 6 17.5 10t18.5 9q11 -11 11 -21t-8 -18q-11 -12 -22.5 -23t-25.5 -20q-30 -21 -48 -31.5t-34.5 -17.5t-37.5 -13t-57 -16q-2 -14 -3 -29t-5 -30q-10 -44 -28 -84t-44 -77q-44 -64 -121 -53
q-39 5 -65.5 28t-31.5 63q-2 20 -2 39.5t5 38.5q7 32 16 63.5t21 61.5q19 48 49.5 84.5t75.5 62.5q17 9 34 15t37 6q29 -1 44 -13t19 -41q2 -13 0 -25.5t-2 -25.5q-1 -6 0 -12t1 -15zM162 65q8 9 15.5 16.5t12.5 15.5q16 29 30.5 58t28.5 58q11 25 15.5 50t-10.5 51
q14 14 22.5 25.5t10.5 23.5t-1 25.5t-11 30.5q-17 -11 -29.5 -26t-23.5 -31q-34 -51 -52 -107t-28 -115q-6 -37 20 -75z" />
    <glyph glyph-name="p" unicode="p" horiz-adv-x="594" 
d="M397 367q-9 -7 -18 -13.5t-17 -14.5q-64 -58 -116 -125t-98 -139q-58 -90 -110.5 -182t-91.5 -192q-5 -14 -10.5 -28t-10.5 -29t-13.5 -26.5t-25.5 -14.5q-17 -2 -34.5 0t-31.5 22q10 32 19.5 65t21.5 66q40 105 86 211q35 79 69.5 156t71.5 155q20 42 42 82.5t45 82.5
q10 17 24.5 27t36.5 2q2 -1 4 -2.5t4 -3.5q5 -14 0.5 -25.5t-8.5 -23.5q-17 -45 -34.5 -89t-35.5 -89q-4 -11 -7 -22t-4 -24q5 5 9.5 10.5t9.5 11.5q41 49 84 94t92 87q14 11 28 20.5t32 13.5q39 8 58.5 -9t14.5 -56q-7 -57 -30.5 -105.5t-60.5 -90.5q-8 -9 -16.5 -18
t-22.5 -23l19.5 4.5t11.5 4.5q28 17 56 33.5t54 36.5q62 48 121.5 95.5t120.5 95.5q10 8 20.5 16t27.5 8q-1 -8 -1.5 -14t-3.5 -11q-10 -14 -26 -27q-65 -58 -129.5 -115t-129.5 -114q-44 -38 -93.5 -61.5t-106.5 -32.5q-12 -2 -25 -0.5t-25 4.5q-14 4 -16.5 15t7.5 21
q5 6 12 11t13 10q56 52 89.5 116t52.5 136z" />
    <glyph glyph-name="q" unicode="q" horiz-adv-x="614" 
d="M371 286q-19 -5 -32 -15.5t-26 -21.5q-27 -22 -56 -38t-64 -24q-22 -5 -43.5 -4.5t-43.5 8.5q-54 21 -44 76q2 8 3.5 14.5t4.5 12.5q25 50 59 90t83 67q24 13 49.5 19t53.5 -2q24 -6 34 -18.5t12 -37.5v-45q13 6 25 14q16 11 31.5 23t32.5 23q16 10 34 13q31 3 43 -12.5
t2 -44.5q-4 -14 -9.5 -26.5t-10.5 -25.5q15 -7 27.5 -5t25.5 6q50 14 97.5 32t93.5 41q8 5 17 8t18 5q3 1 8 -2t7 -6t1.5 -9t-2.5 -8q-8 -8 -16.5 -16t-19.5 -14q-48 -26 -98 -47t-106 -28l-16 -2t-18 -3q-2 -23 -4.5 -45t-3.5 -44q-2 -72 -24.5 -137.5t-54.5 -128.5
q-20 -37 -42.5 -70.5t-51.5 -63.5q-20 -21 -44.5 -36.5t-55.5 -18.5q-29 -3 -59 5q-43 10 -40 55q2 16 5 32t7 32q22 78 55.5 150.5t75.5 142.5q14 24 29 47.5t30 47.5zM301 439q-14 -4 -22 -7t-13.5 -6t-11 -7.5t-13.5 -11.5q-26 -26 -47 -54.5t-35 -62.5q-5 -14 -7 -28.5
t14 -28.5q40 14 73.5 38t66.5 49q-1 15 1 30t3 29.5t-0.5 29.5t-8.5 30zM291 -132q69 82 116 173t58 203q-13 -15 -30 -42.5t-35 -62t-36 -73t-33 -75t-25.5 -69t-14.5 -54.5z" />
    <glyph glyph-name="r" unicode="r" horiz-adv-x="505" 
d="M232 354q-23 2 -46.5 2t-45 1.5t-38.5 6t-26 13.5q-26 16 -31 37.5t3 47.5q5 12 9 24.5t10 23.5q24 49 56 91.5t71 80.5q11 11 22.5 20.5t25.5 15.5q29 15 57 16q35 2 49.5 -17t4.5 -52q-4 -14 -10.5 -28t-14.5 -27q-32 -51 -65 -102t-67 -105q5 -1 10.5 -2t11.5 -2
q17 -1 35 -0.5t35 -2.5q63 -12 40 -71q-6 -17 -14 -32.5t-16 -31.5q-6 -14 -12.5 -27.5t-11.5 -27.5q-4 -10 -6.5 -21t-6.5 -26q12 5 20.5 8t15.5 8q25 16 58.5 37.5t68.5 44t68.5 44.5t58.5 38l96 59q8 5 16.5 7.5t17.5 -6.5q2 -11 -5 -17.5t-14 -11.5q-19 -14 -37.5 -28
t-36.5 -29q-19 -16 -39 -32t-43.5 -35t-53 -42t-68.5 -53q-27 -23 -55.5 -42t-64.5 -26q-24 -5 -48.5 -5t-47.5 10t-31.5 26t-3.5 42q8 36 24 68t35 63zM139 431q36 32 67.5 67.5t57.5 76.5q10 16 17.5 32.5t15.5 33.5q13 29 5 55q-29 -11 -56 -38t-61 -83
q-20 -33 -35.5 -67.5t-10.5 -76.5z" />
    <glyph glyph-name="s" unicode="s" horiz-adv-x="323" 
d="M541 450q-3 -20 -12.5 -30.5t-20.5 -18.5q-29 -24 -57.5 -48t-57.5 -47l-80 -64t-82 -63q-18 -14 -26.5 -30.5t-6.5 -40.5q5 -75 -9.5 -146t-44.5 -140q-13 -29 -28 -55t-35 -49q-21 -23 -45.5 -39.5t-56.5 -22.5q-8 -2 -16 -3t-16 -1q-72 0 -78 74q-2 32 2.5 63t13.5 61
q13 40 33 75t46 67q21 27 43 52.5t47 48.5q20 18 27.5 37.5t5.5 44.5q-2 28 -2 56t2 56q3 115 87 195q11 11 23.5 19t25.5 15q11 6 22.5 7t25.5 -8q-32 -38 -56 -79.5t-29 -92.5q-3 -32 0 -63t8 -65q22 8 39 20.5t34 23.5t34.5 23t34.5 24l66 45q17 13 34 25.5t34 24.5
q16 11 31.5 26t39.5 23zM79 25q-37 -33 -64 -73t-47 -85q-13 -30 -21.5 -61t-10.5 -65q0 -12 0.5 -25t10.5 -25q24 6 37 21.5t22 34.5q32 66 51 134.5t22 143.5z" />
    <glyph glyph-name="t" unicode="t" horiz-adv-x="312" 
d="M169 146q9 5 17.5 8t15.5 8q22 17 44 34.5t42 37.5q50 48 98.5 96.5t97.5 96.5q12 12 29 24q2 2 7.5 -0.5t8.5 -4.5q2 -2 3 -6.5t-1 -6.5q-4 -7 -9 -13.5t-10 -13.5q-51 -60 -101 -119t-102 -118q-16 -17 -34 -31.5t-38 -28.5q-23 -16 -49.5 -20t-53.5 0q-52 7 -61 60
q-5 27 -2 53.5t11 52.5q18 63 44.5 121t55.5 115l21 44q-17 1 -33.5 -3.5t-32.5 -8t-31.5 -2t-30.5 14.5q2 17 12.5 22.5t21.5 9.5q23 7 46.5 13.5t47.5 10.5q22 3 36 13.5t25 29.5q21 35 43 69.5t45 68.5q8 12 16.5 22.5t18.5 21.5q11 12 19.5 12.5t31.5 -4.5
q4 -14 -2.5 -25t-11.5 -22q-15 -29 -31 -57.5t-31 -57.5q-8 -14 -16 -34q7 -5 16 -4.5t18 0.5t16.5 -3t13.5 -13q-9 -15 -22.5 -19t-26.5 -6q-26 -4 -42.5 -17t-27.5 -37q-25 -55 -51 -109.5t-52 -109.5q-13 -28 -20.5 -57t-8.5 -61q0 -11 1 -22.5t9 -24.5z" />
    <glyph glyph-name="u" unicode="u" horiz-adv-x="614" 
d="M436 132q18 15 30.5 25.5t23.5 20.5q38 33 65.5 56t53 43.5t52.5 43t65 55.5q11 11 23 20.5t24 18.5q6 4 13.5 6t15.5 4q5 -14 -1 -21t-11 -14q-22 -23 -43.5 -46t-42.5 -46q-24 -25 -37.5 -39.5t-25 -26.5t-25.5 -26.5t-38 -38.5q-20 -20 -41 -38.5t-44 -35.5
q-42 -32 -97 -21q-45 9 -52 52q-6 30 -6.5 60t6.5 61q2 8 4 18t5 24q-11 -7 -18 -11t-13 -9l-40 -32t-41 -30q-27 -19 -57.5 -25.5t-62.5 -2.5q-69 9 -60 77q1 8 3.5 15.5t4.5 15.5q33 91 97 159q9 9 20 15.5t23 11.5q6 2 14 0.5t15 -2.5q8 -17 1 -28t-12 -22
q-15 -33 -30.5 -66t-29.5 -66q-5 -13 -8.5 -26.5t2.5 -29.5q15 0 27.5 6.5t23.5 14.5q30 22 59.5 45t58.5 46q20 16 39.5 33t38.5 34q29 24 61 17q34 -7 27 -40q-2 -13 -5.5 -25t-8.5 -24q-9 -27 -18.5 -53.5t-18.5 -52.5q-8 -21 -8.5 -44.5t-0.5 -55.5z" />
    <glyph glyph-name="v" unicode="v" horiz-adv-x="421" 
d="M222 462q7 -16 2 -28t-10 -23q-11 -25 -22.5 -49t-22.5 -48q-9 -22 -16.5 -44t-15.5 -44q-3 -8 -4 -16l-2 -16q0 -5 4 -13q13 -5 23 1t20 11q42 22 78 52t66 66q30 37 58.5 75t54.5 79q40 63 58.5 132t24.5 142q1 14 -2.5 27t-5.5 27q17 8 26.5 6t15.5 -16q9 -21 9 -45
q2 -63 -8 -123.5t-34 -118.5q-58 -137 -153 -244q-35 -39 -75.5 -69t-90.5 -50q-49 -20 -105 -14q-63 6 -54 69q2 14 4.5 27.5t7.5 27.5q18 54 46 102t62 93q11 14 24.5 23.5t36.5 0.5z" />
    <glyph glyph-name="w" unicode="w" horiz-adv-x="577" 
d="M260 257l-42 -36q-17 -13 -36 -17t-39 -2q-35 5 -41 38q-2 8 -2 16.5v16.5q2 44 16 84t37 78q9 17 26 26q5 3 12.5 2.5t13.5 -2.5q8 -4 7.5 -11t-2.5 -14q-3 -8 -6 -15.5t-5 -15.5q-7 -23 -13.5 -44.5t-11.5 -44.5q-4 -14 -4 -28.5t-2 -33.5q11 7 17 10.5t11 8.5
q51 45 83 100q6 11 13.5 18.5t21.5 9.5q47 5 39 -41q-2 -15 -6 -29.5t-6 -29.5q-1 -14 -0.5 -28t3.5 -27q5 -19 16.5 -22.5t25.5 8.5q26 23 46 47q90 108 117 246q11 59 19.5 117t18.5 118l2 16t3 16q7 25 30 23q24 -2 24 -28q1 -23 1.5 -46.5t-1.5 -46.5q-5 -62 -11 -123
t-25 -121q-15 -45 -34 -87.5t-46 -80.5q-12 -17 -25.5 -33.5t-28.5 -30.5q-43 -45 -105 -43q-35 1 -62 15.5t-40 50.5q-1 3 -3 6.5t-6 9.5z" />
    <glyph glyph-name="x" unicode="x" horiz-adv-x="399" 
d="M50 141q24 45 57 82.5t59 81.5q-5 10 -11 21t-11 22q-10 19 -19.5 37.5t-17.5 37.5q-12 31 21 39q19 4 34.5 -2t29.5 -19t26.5 -27t26.5 -30q21 17 41.5 34t41.5 34q9 7 18.5 13t20.5 11t22 4.5t20 -14.5q-8 -23 -26.5 -39t-34.5 -34q-15 -18 -31.5 -34.5t-34.5 -35.5
q19 -45 40 -89t44 -86q-5 -14 -15 -18t-22 -5q-17 -1 -30.5 4t-24.5 18q-10 13 -19 26t-19 27q-8 11 -16 22.5t-17 25.5q-9 -8 -16.5 -13t-13.5 -12q-20 -19 -38 -38t-38 -38q-8 -9 -18.5 -13.5t-28.5 7.5z" />
    <glyph glyph-name="y" unicode="y" horiz-adv-x="518" 
d="M369 312q-16 -12 -30.5 -25t-31.5 -24q-24 -17 -48.5 -32.5t-50.5 -29.5q-21 -11 -44 -14t-47 0q-26 4 -39.5 20t-8.5 42q4 24 18.5 56.5t33.5 65.5t40 62t39 46q14 14 32 16t38 -12q-10 -21 -27.5 -51.5t-35 -63.5t-32 -65t-18.5 -55q14 -5 23 0.5t18 10.5
q49 28 93.5 61.5t86.5 70.5l88 77q14 13 30 17.5t35 -3.5q21 -10 17 -30q-3 -12 -7 -24.5t-9 -23.5q-11 -26 -23.5 -51t-23.5 -51q-3 -8 -5.5 -16t-7.5 -19q21 5 33.5 16t25.5 20q14 9 26.5 19t25.5 20q14 10 27 19t26 19l53 39q13 9 27 17.5t32 13.5q-3 -5 -6 -10.5
t-7 -9.5q-26 -20 -51 -40.5t-51 -41.5q-44 -34 -86.5 -68t-86.5 -67q-30 -24 -46 -58q-44 -94 -93 -183.5t-109 -174.5q-20 -27 -40.5 -53.5t-43.5 -51.5q-31 -33 -68 -56.5t-83 -31.5q-14 -2 -29.5 -1t-29.5 4q-18 4 -27 16.5t-10 30.5q-3 47 21 85q20 32 41.5 62.5
t44.5 59.5q90 105 201 182q45 31 78 68.5t54 88.5q12 28 26.5 54.5t28.5 52.5q-3 3 -7 5zM-42 -356q12 6 20.5 9.5t16.5 8.5q25 17 44 39t33 47q35 59 68.5 117.5t67.5 117.5l8 21l-10.5 -6t-5.5 -4q-45 -42 -87 -85t-79 -92q-18 -24 -33.5 -50t-30.5 -52q-8 -14 -12.5 -31
t0.5 -40z" />
    <glyph glyph-name="z" unicode="z" horiz-adv-x="581" 
d="M253 201q42 -1 75.5 -1.5t66.5 -0.5q35 0 70 1t70 1q11 0 17.5 -0.5t11 -3t9 -7.5t12.5 -14q-5 -13 -15.5 -17.5t-21.5 -6.5q-84 -13 -167 -18.5t-168 8.5q-21 4 -44 14q-20 10 -23.5 22.5t7.5 30.5q5 8 11 15t12 15l148 168q5 6 11 13t16 20l-65 -21q-20 -8 -39.5 -15.5
t-39.5 -13.5q-17 -5 -33.5 -7t-29.5 15q0 14 7.5 19t15.5 10q49 25 100 39t105 21q1 1 5 1q16 -2 32.5 -4t24.5 -19q9 -16 1.5 -29.5t-16.5 -25.5q-13 -17 -26.5 -32.5t-27.5 -31.5q-20 -23 -39 -46.5t-39 -47.5q-8 -10 -15 -21.5t-19 -29.5z" />
    <glyph glyph-name="zero" unicode="0" horiz-adv-x="526" 
d="M520 647v-46q0 -137 -49.5 -252.5t-143.5 -214.5q-31 -33 -67.5 -57t-81.5 -33q-41 -9 -83 -6q-30 3 -52 19.5t-31 45.5q-12 36 -12 73q1 87 32 169q40 105 96 199t132 178q20 23 43 42.5t51 33.5q29 14 57.5 17t57.5 -15q6 -4 13 -5t13 -2q22 -2 27 -7t4 -27
q-1 -28 -2 -55.5t-3 -56.5h-1zM151 105q20 1 35 8t27 18q16 14 31 28t29 30q60 72 99.5 152t62.5 170q5 20 9 41t2 42q-1 17 0 32.5t3 31.5q2 17 2 34.5t-2 34.5q-2 14 -7 27t-21 21q-11 -2 -20 -9.5t-17 -15.5q-17 -20 -34.5 -40.5t-32.5 -42.5q-41 -58 -70 -121t-57 -128
q-20 -47 -32.5 -95t-20.5 -98q-5 -29 -4 -59.5t18 -60.5z" />
    <glyph glyph-name="one" unicode="1" horiz-adv-x="351" 
d="M278 730q-23 -12 -45 -26.5t-45 -27.5t-48 -20t-54 -4q-2 14 5.5 17.5t13.5 5.5q43 15 81 37t73 51q22 18 42 37t40 39q5 5 9.5 10.5t10.5 8.5q23 15 48 0q11 -7 11.5 -17t-2.5 -20l-8 -30t-9 -29q-32 -91 -64.5 -180.5t-62.5 -180.5q-26 -77 -55 -151.5t-63 -148.5
q-4 -8 -6.5 -15t-7.5 -14q-5 -5 -10.5 -10t-11.5 -7q-11 -5 -21 -3.5t-17 6.5t-10 14t-1 21q13 65 26 128.5t33 126.5q28 88 63.5 171t74.5 166q5 9 8.5 18.5t8.5 18.5q-2 3 -7 8z" />
    <glyph glyph-name="two" unicode="2" horiz-adv-x="583" 
d="M163 210q45 -13 87.5 -26t86.5 -23q21 -5 43 -3.5t44 3.5q11 1 20.5 4.5t20.5 5.5q6 1 14 0t11 -5q3 -5 2.5 -13t-3.5 -13q-5 -8 -12.5 -16t-15.5 -13q-9 -5 -19 -8.5t-20 -5.5q-58 -11 -114 -9t-110 28q-31 16 -58.5 13.5t-56.5 -16.5q-23 -11 -45 -24q-17 -11 -35 -12
t-37 4q-12 3 -15.5 12.5t4.5 20.5q5 5 9.5 10.5t9.5 10.5q69 57 124 126t107 142q19 26 37 53t37 54q59 87 92 183q5 17 7.5 34.5t-14.5 29.5q-16 11 -31.5 5t-29.5 -15q-11 -8 -23 -16t-23 -16q-17 -13 -31.5 -26.5t-26 -29.5t-17.5 -34.5t-5 -41.5q-28 -19 -50 -1
q-11 9 -11 21t3 23q2 10 6 20t9 18q35 51 80.5 87t108.5 48q38 7 78 -5q61 -16 55 -80q-2 -16 -6.5 -31.5t-9.5 -31.5q-25 -78 -63 -148t-87 -135q-26 -35 -53.5 -68t-54.5 -67q-5 -5 -9.5 -10.5t-9.5 -12.5z" />
    <glyph glyph-name="three" unicode="3" horiz-adv-x="466" 
d="M283 746q-42 -5 -80 -11t-76 -11q-14 -2 -27.5 -1.5t-25.5 17.5q9 5 17 10t16 7q121 25 243 48q17 3 32 -1t28 -21q-6 -29 -24.5 -49.5t-36.5 -41.5t-36.5 -42t-37.5 -42q8 -8 12 -10q40 -14 64 -42.5t38 -65.5q30 -83 26 -162.5t-53 -155.5q-38 -61 -94 -92.5
t-125 -42.5q-26 -5 -51 -5t-51 5q-45 9 -62 39t-2 72q7 20 17 38t23.5 31.5t31.5 22t42 10.5q18 -11 5 -28q-7 -8 -14 -15.5t-14 -15.5q-28 -33 -21 -74q6 -38 41 -32q34 6 64.5 18.5t55.5 38.5q51 54 72.5 117t14.5 135q-3 30 -8 60t-19 58q-11 20 -24.5 36.5t-41.5 14.5
q-3 -1 -6.5 0.5t-6.5 2.5q-17 6 -20.5 15t6.5 24q11 17 24 33.5t26 33.5l52 60q2 2 2.5 5t3.5 9z" />
    <glyph glyph-name="four" unicode="4" horiz-adv-x="422" 
d="M342 467q9 -6 20 -6.5t21.5 -0.5t20.5 -3.5t18 -15.5q-5 -4 -10 -7t-10 -4q-8 -2 -16.5 -2h-16.5q-15 -1 -23 -2t-12.5 -5t-7 -12t-5.5 -22l-28 -132t-29 -132q-4 -16 -9.5 -31.5t-12.5 -30.5q-6 -12 -17 -20.5t-23.5 -11.5t-26 -1t-23.5 10q-5 5 -8.5 13t-3.5 16
q-2 40 2 79t13 78l36 154q2 7 2.5 14t1.5 15q-27 5 -52 4.5t-51 -4.5q-18 -3 -34 -0.5t-28 21.5q2 5 4 9l4 8q57 75 112.5 149t112.5 149q17 21 33 42.5t33 42.5q10 14 24 20q21 9 37.5 -2t16.5 -34q-1 -14 -3 -27.5t-5 -27.5q-13 -61 -26 -121t-27 -121q-3 -12 -5 -24
t1 -24zM208 451q6 21 12 39t11 36q5 17 12 35t8 41q-39 -48 -65.5 -88t-32.5 -63h55z" />
    <glyph glyph-name="five" unicode="5" horiz-adv-x="477" 
d="M148 247q-8 -14 -17.5 -17t-19.5 -5q-29 -6 -40 -24.5t-16 -42.5q-5 -23 3.5 -42t24.5 -34q6 -5 16 -6.5t19 0.5q48 7 84 32t60 67q31 54 42.5 111t6.5 119q-2 26 -13.5 47t-28.5 39q-23 26 -59 24q-17 0 -34.5 -1.5t-34.5 -3.5t-33 -1.5t-32 7.5q-24 9 -17 33
q13 45 27 89t28 89q12 37 54 35q47 -2 93.5 -2.5t93.5 -2.5q14 -1 28.5 -2.5t25.5 -15.5q-8 -15 -19 -16.5t-22 -0.5q-35 0 -68.5 1t-67.5 2h-34l-44 -166q10 -1 18 -2t16 -1q8 -1 16 -0.5t16 0.5q42 0 76.5 -14.5t60.5 -39.5t41 -59.5t18 -76.5q4 -63 -14 -119t-53 -99.5
t-84.5 -73.5t-107.5 -41q-43 -8 -88 -3q-42 5 -66.5 35t-22.5 72q1 23 9.5 44t22.5 38t33 28.5t42 15.5q16 3 31.5 2t29.5 -18z" />
    <glyph glyph-name="six" unicode="6" horiz-adv-x="361" 
d="M276 738q1 -16 -7 -28t-14 -23q-47 -85 -85 -172t-61 -181q-8 -35 -14 -69.5t-4 -69.5q1 -26 8 -50t28 -42q43 17 65 50t20 78q-10 2 -19.5 4t-19.5 6q-5 2 -9.5 6t-5.5 9t2 10.5t7 8.5q12 9 29.5 11.5t35.5 -1t33.5 -12t24.5 -20.5q9 -13 10 -26.5t-1 -27.5
q-5 -35 -24 -64.5t-46.5 -50t-61.5 -30.5t-68 -5q-59 9 -91 60q-18 29 -25 60.5t0 64.5q8 35 16.5 69t19.5 67q30 83 71.5 159.5t91.5 149.5q19 27 43 48q11 9 23.5 14t27.5 -3z" />
    <glyph glyph-name="seven" unicode="7" horiz-adv-x="413" 
d="M164 303q-21 -2 -40.5 -7t-38 -9t-36.5 -5.5t-36 2.5q-4 1 -7 5t-6 6q5 15 15.5 19.5t21.5 7.5q31 9 62.5 18t63.5 16q16 3 25 11t16 22l153 299q2 4 3.5 8.5t4.5 11.5q-45 -8 -88 -15t-91 -15q-5 -11 -11 -25.5t-14 -28.5q-11 -21 -23 -42.5t-26 -41.5
q-12 -17 -23.5 -18t-34.5 8q2 6 4 12.5t5 11.5q22 33 41.5 67.5t30.5 73.5q4 14 14.5 18.5t21.5 6.5q26 5 52.5 10t52.5 10q29 5 57 11.5t57 12.5q9 2 18.5 4t18.5 2q29 1 39.5 -11t3.5 -40q-6 -26 -14 -51.5t-17 -51.5q-17 -47 -34.5 -92t-33.5 -92q-23 -65 -45 -130
t-45 -130q-11 -31 -24 -60.5t-26 -59.5q-8 -19 -22.5 -26.5t-34.5 -5.5q-19 2 -27.5 10t-12.5 27q-11 50 -6.5 97.5t20.5 95.5q4 12 7.5 24.5t8.5 28.5z" />
    <glyph glyph-name="eight" unicode="8" horiz-adv-x="435" 
d="M338 805q-24 -2 -39.5 -11t-25 -21.5t-15 -28.5t-9.5 -33q-6 -26 -7 -51.5t10 -51.5q3 1 4.5 0.5t2.5 0.5q72 66 110 149q11 22 10 43.5t-10 42.5q-5 10 -12.5 18.5t-15.5 17.5q26 14 48.5 9.5t39.5 -30.5q20 -31 30 -65.5t3 -71.5q-9 -49 -32 -97q-43 -91 -118 -161
q-15 -14 -20.5 -29.5t-2.5 -36.5q5 -32 7.5 -64.5t2.5 -65.5q0 -81 -38 -152q-27 -53 -70 -84t-100 -43q-12 -2 -25 -0.5t-26 3.5q-35 8 -43 44q-2 14 -4.5 27.5t-2.5 27.5q2 46 9.5 90.5t23.5 88.5q23 65 55 123t83 106q14 13 17.5 27t-1.5 32q-10 42 -8.5 83t10.5 83
q8 42 34 66t65 35q14 4 29.5 2.5t30.5 -22.5zM79 37q14 0 24 8t18 17q37 40 53 87q29 84 29 168q0 6 -1 12.5t-3 14.5q-17 -17 -34.5 -38.5t-33 -44t-27.5 -45t-18 -41.5q-8 -22 -11.5 -44.5t-6.5 -45.5q-2 -13 -1 -25.5t12 -22.5z" />
    <glyph glyph-name="nine" unicode="9" horiz-adv-x="447" 
d="M252 468q-22 -3 -42.5 -6t-40.5 -5q-6 -1 -12 -0.5t-12 0.5q-59 6 -83 45t-1 94q33 82 105 135q20 16 44 26q50 23 89.5 11.5t75.5 -59.5q6 5 11.5 10t11.5 10q19 14 39.5 14t40.5 -5q24 -8 18 -34q-4 -14 -9 -28.5t-11 -28.5q-33 -76 -67 -151t-67 -151
q-9 -20 -17 -39.5t-14 -39.5q-16 -51 -41 -96.5t-47 -93.5q-13 -29 -45 -27q-17 1 -26.5 10t-7.5 26q3 34 6.5 67.5t11.5 66.5q24 109 74 210q5 9 8.5 18.5t7.5 20.5zM331 677q0 18 -8 33t-21 23q-16 8 -29.5 4.5t-26.5 -12.5q-5 -4 -9.5 -7t-9.5 -7q-32 -29 -49.5 -64.5
t-25.5 -77.5q-2 -8 -1 -16t3 -16q13 -47 50 -20q24 17 45.5 36t44.5 37q22 17 28 40t9 47z" />
    <glyph glyph-name="fraction" unicode="&#x2044;" horiz-adv-x="696" 
d="M100 -19q7 30 16.5 57.5t22.5 53.5q58 121 115.5 240t116.5 239q38 78 76.5 154.5t77.5 154.5q7 14 14 27t15 26q6 13 20 18q7 4 13.5 1t7.5 -11q1 -11 0.5 -21.5t-4.5 -19.5q-12 -35 -24.5 -70.5t-26.5 -69.5q-60 -146 -126.5 -286.5t-136.5 -281.5l-48 -98t-50 -98
q-14 -28 -30.5 -30.5t-48.5 15.5z" />
    <glyph glyph-name="asterisk" unicode="*" horiz-adv-x="445" 
d="M344 785q-8 -11 -14.5 -20.5t-14.5 -20.5l30 -17q-5 -9 -12 -13t-14.5 -5.5t-15 -2.5t-13.5 -3q-9 -12 -5.5 -23.5t3.5 -22.5q0 -20 -9 -29t-28 -4q-17 5 -34.5 11.5t-34.5 12.5q-14 5 -15.5 14t-0.5 20q-8 4 -17 4t-18 0.5t-17 4t-14 14.5q7 12 17 16t21 5.5t22 3.5
t20 10q-3 15 -6 30.5t-5 29.5q7 9 15 12.5t17 4t17.5 -1t17.5 -2.5q7 8 13 16t14 15q17 15 34.5 9.5t19.5 -28.5q2 -14 10 -21.5t17 -18.5z" />
    <glyph glyph-name="backslash" unicode="\" horiz-adv-x="604" 
d="M454 -55q-17 26 -29 52.5t-22 54.5q-45 126 -88 251t-87 252q-28 81 -55 163t-55 164q-5 14 -9 28.5t-8 29.5q-3 14 2 27q2 8 9 10.5t13 -2.5q8 -7 15 -15t12 -17q17 -34 32.5 -67.5t29.5 -68.5q60 -145 113 -291t103 -295q17 -53 35 -104.5t34 -103.5q10 -30 0 -44
t-45 -24z" />
    <glyph glyph-name="periodcentered" unicode="&#xb7;" horiz-adv-x="331" 
d="M100 336q0 18 5 34t14 28.5t21.5 21t27.5 10.5q11 2 22.5 -0.5t22.5 -5.5q11 -2 15 -10t2 -19q-5 -26 -14 -49t-29 -42l-3 -3q-12 -11 -25.5 -15t-30.5 2t-20.5 20t-7.5 28z" />
    <glyph glyph-name="colon" unicode=":" horiz-adv-x="600" 
d="M100 336q0 18 5 34t14 28.5t21.5 21t27.5 10.5q11 2 22.5 -0.5t22.5 -5.5q11 -2 15 -10t2 -19q-5 -26 -14 -49t-29 -42l-3 -3q-12 -11 -25.5 -15t-30.5 2t-20.5 20t-7.5 28zM87 27q0 18 5 34t14 28.5t21.5 21t27.5 10.5q11 2 22.5 -0.5t22.5 -5.5q11 -2 15 -10t2 -19
q-5 -26 -14 -49t-29 -42l-3 -3q-12 -11 -25.5 -15t-30.5 2t-20.5 20t-7.5 28z" />
    <glyph glyph-name="comma" unicode="," horiz-adv-x="373" 
d="M140 -99l-12 2q-29 6 -28 36q1 5 1.5 9t2.5 9q10 35 28 66t43 58q16 17 35.5 21.5t41.5 -0.5q13 -2 18.5 -10.5t0.5 -19.5q-16 -37 -29.5 -74t-38.5 -69q-11 -14 -25.5 -21.5t-37.5 -6.5z" />
    <glyph glyph-name="ellipsis" unicode="&#x2026;" horiz-adv-x="733" 
d="M302 55q0 18 5 34t14 28.5t21.5 21t27.5 10.5q11 2 22.5 -0.5t22.5 -5.5q11 -2 15 -10t2 -19q-5 -26 -14 -49t-29 -42l-3 -3q-12 -11 -25.5 -15t-30.5 2t-20.5 20t-7.5 28zM502 55q0 18 5 34t14 28.5t21.5 21t27.5 10.5q11 2 22.5 -0.5t22.5 -5.5q11 -2 15 -10t2 -19
q-5 -26 -14 -49t-29 -42l-3 -3q-12 -11 -25.5 -15t-30.5 2t-20.5 20t-7.5 28zM100 51q0 18 5 34t14 28.5t21.5 21t27.5 10.5q11 2 22.5 -0.5t22.5 -5.5q11 -2 15 -10t2 -19q-5 -26 -14 -49t-29 -42l-3 -3q-12 -11 -25.5 -15t-30.5 2t-20.5 20t-7.5 28z" />
    <glyph glyph-name="exclam" unicode="!" horiz-adv-x="614" 
d="M226 342q3 14 6 33.5t9 39.5q31 100 70 195.5t84 189.5q8 15 17 28.5t18 26.5q12 19 40 21q29 2 39 -9.5t1 -40.5q-26 -78 -52.5 -156.5t-53.5 -156.5q-11 -32 -21.5 -64t-21.5 -64q-9 -29 -22 -56.5t-32 -51.5q-5 -7 -10 -13t-12 -10q-17 -11 -33 -4t-21 27q-1 4 -1 7.5
v6.5q-2 11 -2 22.5t-2 28.5zM100 55q0 18 5 34t14 28.5t21.5 21t27.5 10.5q11 2 22.5 -0.5t22.5 -5.5q11 -2 15 -10t2 -19q-5 -26 -14 -49t-29 -42l-3 -3q-12 -11 -25.5 -15t-30.5 2t-20.5 20t-7.5 28z" />
    <glyph glyph-name="exclamdown" unicode="&#xa1;" horiz-adv-x="615" 
d="M515 825q0 -18 -5 -34t-14 -29t-21.5 -21t-27.5 -10q-11 -2 -23 0t-23 5q-10 3 -14.5 11t-2.5 19q5 26 14 49t29 42q2 2 4 3q12 11 25.5 15t29.5 -2q18 -6 21.5 -20t7.5 -28zM389 537q-3 -14 -6 -33.5t-10 -39.5q-30 -100 -69.5 -195t-84.5 -189q-7 -15 -16 -28.5
t-18 -27.5q-14 -18 -40 -20q-30 -2 -40 9t0 40q26 79 52.5 157.5t52.5 156.5l22 64l22 64q9 29 22 56t31 52q5 7 10.5 13t12.5 10q17 11 32.5 4t20.5 -27q2 -10 2 -14z" />
    <glyph glyph-name="numbersign" unicode="#" 
 />
    <glyph glyph-name="period" unicode="." horiz-adv-x="331" 
d="M100 55q0 18 5 34t14 28.5t21.5 21t27.5 10.5q11 2 22.5 -0.5t22.5 -5.5q11 -2 15 -10t2 -19q-5 -26 -14 -49t-29 -42l-3 -3q-12 -11 -25.5 -15t-30.5 2t-20.5 20t-7.5 28z" />
    <glyph glyph-name="question" unicode="?" horiz-adv-x="736" 
d="M514 885q-29 -4 -51 -18t-41 -34q-18 -19 -36 -39t-31 -43t-20 -49.5t-16 -54.5q-8 0 -16.5 -1.5t-17.5 -0.5q-17 2 -27 13.5t-9 28.5q1 14 4 27.5t10 25.5q39 78 98 131.5t148 71.5q25 6 56 4q63 -4 69 -67q5 -45 -4 -86.5t-31 -79.5q-45 -77 -96 -143
q-33 -44 -68.5 -86t-70.5 -84q-9 -11 -12 -22.5t-5 -24.5q-8 -37 -20 -72t-38 -64q-5 -5 -11.5 -11t-13.5 -8q-12 -3 -23 -3.5t-20 4t-15 14.5t-6 28q-1 14 0 27.5t4 27.5q9 36 22.5 70t39.5 63q31 35 59 72.5t57 73.5q28 35 53.5 71t44.5 77q19 43 34 92q5 16 6.5 33.5
t-6.5 35.5zM165 -45q-38 0 -54 20t-9 51q8 29 22.5 50.5t47.5 25.5q12 2 25 -0.5t25 -6.5q6 -2 12 -9t8 -14q3 -11 0 -26.5t-9.5 -31t-16.5 -28.5t-20 -19q-9 -5 -17.5 -7.5t-13.5 -4.5z" />
    <glyph glyph-name="questiondown" unicode="&#xbf;" horiz-adv-x="736" 
d="M572 947q37 0 53.5 -20t8.5 -50q-7 -29 -22 -51t-48 -26q-12 -2 -25 0.5t-24 6.5q-7 2 -12.5 9t-7.5 14q-3 12 -0.5 27.5t9 30.5t16 28t20.5 19q9 5 18 7.5t14 4.5zM222 17q29 4 51 18t41 34q18 20 36 39.5t32 42.5q12 23 19 49.5t16 54.5q8 1 17 2t17 0q17 -2 27.5 -13
t8.5 -28q-2 -31 -13 -54q-40 -78 -99 -131.5t-148 -71.5q-14 -2 -27.5 -3.5t-27.5 -0.5q-63 4 -70 67q-5 45 4 86.5t31 79.5t46 73.5t50 69.5q34 44 69 86l70 84q9 11 12 22.5t5 24.5q8 37 20 72t38 64q5 6 11.5 11.5t13.5 7.5q12 3 23.5 3.5t20.5 -3.5t14.5 -14t6.5 -28
q0 -14 -0.5 -28t-3.5 -28q-9 -36 -23 -70t-40 -63q-31 -35 -59 -72.5t-57 -73.5q-28 -35 -53 -71t-44 -77q-11 -22 -19 -45t-15 -46q-5 -17 -7 -34.5t6 -35.5z" />
    <glyph glyph-name="quotedbl" unicode="&#x22;" horiz-adv-x="470" 
d="M301 681l-12 -2q-29 -4 -38 25q-1 5 -1.5 9t-0.5 9q-2 37 5.5 72t21.5 69q10 21 27 31.5t40 12.5q13 2 20.5 -4t6.5 -18q-3 -40 -4 -79.5t-14 -77.5q-7 -17 -18 -28.5t-33 -18.5zM153 675q1 1 -3 0t-9 -2q-31 -4 -38 26q-1 5 -1.5 9t-0.5 9q-2 37 5.5 71.5t21.5 68.5
q10 22 27 32t40 13q13 2 20.5 -4.5t6.5 -18.5q-3 -40 -4 -79.5t-15 -77.5q-6 -17 -17 -28.5t-33 -18.5z" />
    <glyph glyph-name="quotesingle" unicode="'" horiz-adv-x="373" 
d="M140 673l-12 2q-29 6 -28 36q1 5 1.5 9t2.5 9q10 35 28 66t43 58q16 17 35.5 21.5t41.5 -0.5q13 -2 18.5 -10.5t0.5 -19.5q-16 -37 -29.5 -74t-38.5 -69q-11 -14 -25.5 -21.5t-37.5 -6.5z" />
    <glyph glyph-name="semicolon" unicode=";" horiz-adv-x="374" 
d="M135 336q0 18 5 34t14 28.5t21.5 21t27.5 10.5q11 2 22.5 -0.5t22.5 -5.5q11 -2 15 -10t2 -19q-5 -26 -14 -49t-29 -42l-3 -3q-12 -11 -25.5 -15t-30.5 2t-20.5 20t-7.5 28zM141 -99l-12 2q-29 6 -28 36q1 5 1.5 9t2.5 9q10 35 28 66t43 58q16 17 35.5 21.5t41.5 -0.5
q13 -2 18.5 -10.5t0.5 -19.5q-16 -37 -29.5 -74t-38.5 -69q-11 -14 -25.5 -21.5t-37.5 -6.5z" />
    <glyph glyph-name="slash" unicode="/" horiz-adv-x="696" 
d="M100 -19q7 30 16.5 57.5t22.5 53.5q58 121 115.5 240t116.5 239q38 78 76.5 154.5t77.5 154.5q7 14 14 27t15 26q6 13 20 18q7 4 13.5 1t7.5 -11q1 -11 0.5 -21.5t-4.5 -19.5q-12 -35 -24.5 -70.5t-26.5 -69.5q-60 -146 -126.5 -286.5t-136.5 -281.5l-48 -98t-50 -98
q-14 -28 -30.5 -30.5t-48.5 15.5z" />
    <glyph glyph-name="underscore" unicode="_" horiz-adv-x="838" 
d="M733 71q2 -3 4 -9t0 -10l-3 -4q-5 -3 -14 -4t-14 -2l-106 -5q-103 0 -204 0.5t-204 -0.5q-15 1 -30 1t-30 2t-25 10q-7 5 -7.5 12t6.5 12q9 5 19 9t20 6q28 4 53 7.5t49.5 7t49 6.5t53.5 6l29 -1q8 1 27 1t39.5 -0.5t37 -1t19.5 -0.5q35 -1 68.5 -1h68.5q7 0 18 0.5
t22 0.5t21 -1.5t16 -6.5q7 -5 11 -16t6 -19z" />
    <glyph glyph-name="braceleft" unicode="{" 
 />
    <glyph glyph-name="braceright" unicode="}" 
 />
    <glyph glyph-name="bracketleft" unicode="[" 
 />
    <glyph glyph-name="bracketright" unicode="]" 
 />
    <glyph glyph-name="parenleft" unicode="(" 
 />
    <glyph glyph-name="parenright" unicode=")" 
 />
    <glyph glyph-name="hyphen" unicode="-" horiz-adv-x="597" 
d="M492 358q2 -3 4 -9.5t0 -9.5q-1 -2 -3 -4q-5 -3 -14 -4t-14 -2l-106 -5h-50h-22.5h-9h-9t-22.5 -0.5t-50 -0.5q-15 0 -30 0.5t-31 1.5q-8 1 -16.5 5.5t-13.5 10.5q-6 8 -5 14q0 2 0.5 2.5t0.5 2.5q5 12 18.5 23t27.5 12l190 4h22t8 0.5t8.5 0.5h22.5q7 0 18 0.5t22 0.5
t21 -1.5t16 -6.5q7 -5 11 -16t6 -19z" />
    <glyph glyph-name="guillemotleft" unicode="&#xab;" horiz-adv-x="858" 
d="M100 447q44 27 86 55t86 54q32 19 64 35.5t64 32.5q20 10 41 12t41 -16q-1 -17 -13 -24.5t-23 -14.5q-45 -29 -89.5 -58.5t-89.5 -58.5l-41 -31q11 -8 19 -13.5t16 -9.5q18 -8 37 -13.5t37 -13.5q34 -16 67 -32t66 -33q4 -2 6.5 -6t5.5 -8q-9 -18 -23.5 -21t-29.5 -1
q-11 1 -22 5l-22 8q-43 15 -85.5 30.5t-85.5 29.5q-32 11 -60.5 25t-51.5 39v28zM376 447q43 27 85.5 55t86.5 54q31 19 63 35.5t64 32.5q20 10 41.5 12t41.5 -16q-1 -17 -13 -24.5t-23 -14.5q-45 -29 -89.5 -58.5t-89.5 -58.5q-10 -7 -19 -14t-22 -17q11 -8 18.5 -13.5
t15.5 -9.5q19 -8 37.5 -13.5t36.5 -13.5q35 -16 68 -32t66 -33q4 -2 6.5 -6t5.5 -8q-10 -18 -24 -21t-29 -1q-11 1 -22 5l-22 8q-43 15 -85.5 30.5t-85.5 29.5q-32 11 -60.5 25t-51.5 39v28z" />
    <glyph glyph-name="guillemotright" unicode="&#xbb;" horiz-adv-x="841" 
d="M725 495q27 -21 8 -49q-7 -11 -15 -21t-18 -18q-29 -24 -57 -41q-34 -20 -68.5 -39t-69.5 -39q-14 -8 -28.5 -11.5t-29.5 0.5q-6 2 -11.5 5.5t-11.5 7.5q5 20 17 30.5t26 18.5q23 14 46.5 27t46.5 27q18 11 34.5 23.5t33.5 25.5q5 4 9.5 10l10.5 14q-9 5 -16 9t-14 6
q-32 10 -63 18.5t-62 19.5q-27 9 -52 20.5t-51 23.5q-7 3 -12 9.5t-12 11.5q10 14 21.5 18t25.5 1q12 -2 24.5 -6.5t24.5 -8.5l146 -47q21 -7 42.5 -13.5t41.5 -14.5q9 -3 17 -8zM467 431q-13 -20 -34 -38q-13 -11 -27 -22t-29 -19q-35 -20 -69 -39.5t-69 -39.5
q-14 -8 -28.5 -11t-30.5 0q-6 2 -11.5 6t-11.5 7q5 20 17.5 30.5t26.5 18.5q23 14 46.5 27t46.5 27q18 11 34.5 23.5t33.5 25.5q5 4 9 10t10 14q-9 5 -15.5 9.5t-14.5 6.5q-31 10 -62.5 18t-62.5 19q-26 10 -51.5 21.5t-50.5 23.5q-7 3 -12.5 9t-11.5 12q10 14 21.5 17.5
t24.5 1.5q13 -3 25 -7l24 -8l147 -48q21 -7 42 -13.5t42 -14.5q18 -6 33 -18q27 -21 8 -49z" />
    <glyph glyph-name="guilsinglleft" unicode="&#x2039;" horiz-adv-x="582" 
d="M100 447q43 27 85.5 55t86.5 54q31 19 63 35.5t64 32.5q20 10 41.5 12t41.5 -16q-1 -17 -13 -24.5t-23 -14.5q-45 -29 -89.5 -58.5t-89.5 -58.5q-10 -7 -19 -14t-22 -17q11 -8 18.5 -13.5t15.5 -9.5q19 -8 37.5 -13.5t36.5 -13.5q35 -16 68 -32t66 -33q4 -2 6.5 -6
t5.5 -8q-10 -18 -24 -21t-29 -1q-11 1 -22 5l-22 8q-43 15 -85.5 30.5t-85.5 29.5q-32 11 -60.5 25t-51.5 39v28z" />
    <glyph glyph-name="guilsinglright" unicode="&#x203a;" horiz-adv-x="575" 
d="M158 290q5 20 17 30.5t26 18.5q23 14 46.5 27t46.5 27q18 11 34.5 23.5t33.5 25.5q5 4 9.5 10l10.5 14q-9 5 -16 9t-14 6q-32 10 -63 18.5t-62 19.5q-27 9 -52 20.5t-51 23.5q-7 3 -12 9.5t-12 11.5q10 14 21.5 18t25.5 1q12 -2 24.5 -6.5t24.5 -8.5l146 -47
q21 -7 42.5 -13.5t41.5 -14.5q9 -3 17 -8l16 -10q27 -21 8 -49q-7 -11 -15 -21t-18 -18q-29 -24 -57 -41q-34 -20 -68.5 -39t-69.5 -39q-14 -8 -28.5 -11.5t-29.5 0.5q-6 2 -11.5 5.5t-11.5 7.5z" />
    <glyph glyph-name="C" unicode="C" horiz-adv-x="487" 
d="M525 796q-23 -11 -40.5 -26.5t-33.5 -32.5q-66 -66 -119 -140.5t-100 -155.5q-35 -60 -65 -121.5t-47 -129.5q-5 -18 -6 -36.5t-2 -37.5q-1 -14 4 -27t20 -23q12 -1 24 3t23 9l178 82l19 9.5t19 7.5q5 1 12.5 -1t7.5 -4q3 -14 -3 -25q-6 -12 -20 -19q-46 -26 -91.5 -51.5
t-92.5 -49.5q-25 -13 -52 -14.5t-54 0.5q-54 5 -83 41.5t-21 90.5q7 51 24.5 97.5t39.5 91.5q51 106 113.5 202t146.5 178q25 24 50.5 45.5t53.5 41.5q34 25 76 34q38 9 65.5 -8t39.5 -54q7 -23 6.5 -44.5t-6.5 -43.5q-17 -56 -44 -105.5t-62 -95.5q-15 -20 -27 -22.5
t-41 7.5q4 8 7 16t7 16l85 156q11 20 13.5 42t0.5 45q-1 14 -5.5 27.5t-19.5 24.5z" />
    <glyph glyph-name="dollar" unicode="$" horiz-adv-x="681" 
d="M578 925q5 -14 1 -25t-9 -22q-14 -33 -29 -66t-29 -66q-8 -17 -14 -34.5t-3 -37.5q1 -8 -4 -19t-13 -16q-13 -8 -19 -18.5t-11 -21.5q-8 -17 -14.5 -34t-15.5 -34q-17 -36 -1 -72q37 -85 -1 -172q-18 -44 -48.5 -73t-77.5 -42q-8 -2 -16 -4.5t-17 -5.5q-19 -40 -37 -80
t-37 -80q-5 -10 -9 -19.5t-9 -18.5q-10 -18 -32 -5q2 52 11.5 104t29.5 103q-11 7 -22 13t-21 12.5t-18.5 15.5t-12.5 21q7 14 16.5 14.5t19.5 -4.5q13 -5 25.5 -11.5t26.5 -13.5q5 7 9 12.5t7 11.5q25 58 49.5 115.5t50.5 115.5q8 17 7.5 31.5t-11.5 29.5q-14 20 -27 44
q-30 51 12 98q18 21 40.5 35t50.5 16q23 2 37 12.5t23 30.5q11 25 24 48.5t27 46.5q16 27 38 53q23 26 53 12zM383 676q-29 -18 -36 -33.5t4 -44.5q17 21 23.5 38t8.5 40zM306 275q2 -2 3.5 -2.5t3.5 -2.5q11 14 17 30t4 36z" />
    <glyph glyph-name="plus" unicode="+" horiz-adv-x="602" 
d="M221 405q-16 4 -32 4t-31.5 1t-30 6t-27.5 20q16 13 34 19t37 9t38 6.5t37 12.5q4 10 8.5 22.5t9.5 25.5q13 32 25 65t25 65q3 8 6 15.5t8 14.5q8 12 22 15.5t28 -2.5q11 -5 17 -13.5t4 -23.5q-2 -17 -5 -34.5t-7 -34.5l-21 -84q11 -9 21.5 -7.5t21.5 3.5q12 2 24.5 3.5
t25.5 1.5q14 0 25 -5t18 -21q-13 -21 -30.5 -32t-37.5 -16.5t-42 -8.5t-43 -8q-3 -8 -6.5 -16t-6.5 -17q-11 -35 -22.5 -70.5t-23.5 -70.5q-8 -23 -29.5 -31t-41.5 6q-6 4 -11 11.5t-5 14.5q0 25 1.5 49t3.5 48q2 14 5.5 27.5t7.5 29.5z" />
    <glyph glyph-name="minus" unicode="&#x2212;" horiz-adv-x="597" 
d="M492 358q2 -3 4 -9.5t0 -9.5q-1 -2 -3 -4q-5 -3 -14 -4t-14 -2l-106 -5h-50h-22.5h-9h-9t-22.5 -0.5t-50 -0.5q-15 0 -30 0.5t-31 1.5q-8 1 -16.5 5.5t-13.5 10.5q-6 8 -5 14q0 2 0.5 2.5t0.5 2.5q5 12 18.5 23t27.5 12l190 4h22t8 0.5t8.5 0.5h22.5q7 0 18 0.5t22 0.5
t21 -1.5t16 -6.5q7 -5 11 -16t6 -19z" />
    <glyph glyph-name="multiply" unicode="&#xd7;" horiz-adv-x="655" 
d="M229 478q-8 15 -19.5 26t-22 22.5t-17.5 25.5t-5 34q21 -2 38 -10.5t32.5 -20t31.5 -22.5t35 -17q10 5 22 10t25 11l127 57q8 3 15.5 6t15.5 5q14 2 26 -5t19 -21q10 -24 -11 -41q-14 -11 -28.5 -20.5t-29.5 -19.5q-19 -12 -37.5 -23.5t-36.5 -22.5q2 -14 10.5 -20
t16.5 -12l20 -16t19 -17q10 -9 14.5 -20.5t-2.5 -27.5q-24 -6 -44 -1.5t-38 15t-35.5 24t-36.5 25.5l-32 -15q-33 -17 -66 -33.5l-67 -33.5q-22 -11 -42.5 -0.5t-25.5 33.5q-2 7 0.5 15.5t7.5 13.5q17 17 35 33.5t37 31.5q11 9 23 16t26 15z" />
    <glyph glyph-name="divide" unicode="&#xf7;" horiz-adv-x="597" 
d="M235 432q0 18 5 34t14 28.5t21.5 21t27.5 10.5q11 2 22.5 -0.5t22.5 -5.5q11 -2 15 -10t2 -19q-5 -26 -14 -49t-29 -42l-3 -3q-12 -11 -25.5 -15t-30.5 2t-20.5 20t-7.5 28zM492 306q-2 8 -6 19t-11 16q-6 5 -16 6.5t-21 1.5t-22 -0.5t-18 -0.5h-22.5t-8.5 -0.5t-8 -0.5
h-22l-190 -4q-14 -1 -27.5 -12t-18.5 -23q0 -2 -0.5 -2.5t-0.5 -2.5q-1 -6 5 -14q5 -6 13.5 -10.5t16.5 -5.5q16 -1 31 -1.5t30 -0.5q34 0 50 0.5t22.5 0.5h9h9h22.5h50l106 5q5 1 14 2t14 4q2 2 3 4q2 3 0 9.5t-4 9.5zM222 123q0 18 5 34t14 28.5t21.5 21t27.5 10.5
q11 2 22.5 -0.5t22.5 -5.5q11 -2 15 -10t2 -19q-5 -26 -14 -49t-29 -42l-3 -3q-12 -11 -25.5 -15t-30.5 2t-20.5 20t-7.5 28z" />
    <glyph glyph-name="equal" unicode="=" horiz-adv-x="588" 
d="M430 531q-15 -21 -30.5 -30.5t-32.5 -12.5q-40 -7 -80 -11.5t-81 -9.5q-14 -1 -27 2.5t-22 19.5q12 22 32 26.5t40 8.5l48 10t49 7.5t51 0.5t53 -11zM488 402q-14 -11 -24.5 -20t-21.5 -14q-13 -7 -27.5 -12t-28.5 -9q-55 -11 -110 -17.5t-112 -2.5q-28 2 -53 14
q-11 5 -11 16t11 17q19 10 35 13q67 10 133.5 19t133.5 18q13 2 25.5 0.5t25.5 -3.5q5 -1 9.5 -6t14.5 -13z" />
    <glyph glyph-name="greater" unicode="&#x3e;" horiz-adv-x="575" 
d="M158 290q5 20 17 30.5t26 18.5q23 14 46.5 27t46.5 27q18 11 34.5 23.5t33.5 25.5q5 4 9.5 10l10.5 14q-9 5 -16 9t-14 6q-32 10 -63 18.5t-62 19.5q-27 9 -52 20.5t-51 23.5q-7 3 -12 9.5t-12 11.5q10 14 21.5 18t25.5 1q12 -2 24.5 -6.5t24.5 -8.5l146 -47
q21 -7 42.5 -13.5t41.5 -14.5q9 -3 17 -8l16 -10q27 -21 8 -49q-7 -11 -15 -21t-18 -18q-29 -24 -57 -41q-34 -20 -68.5 -39t-69.5 -39q-14 -8 -28.5 -11.5t-29.5 0.5q-6 2 -11.5 5.5t-11.5 7.5z" />
    <glyph glyph-name="less" unicode="&#x3c;" horiz-adv-x="582" 
d="M100 447q43 27 85.5 55t86.5 54q31 19 63 35.5t64 32.5q20 10 41.5 12t41.5 -16q-1 -17 -13 -24.5t-23 -14.5q-45 -29 -89.5 -58.5t-89.5 -58.5q-10 -7 -19 -14t-22 -17q11 -8 18.5 -13.5t15.5 -9.5q19 -8 37.5 -13.5t36.5 -13.5q35 -16 68 -32t66 -33q4 -2 6.5 -6
t5.5 -8q-10 -18 -24 -21t-29 -1q-11 1 -22 5l-22 8q-43 15 -85.5 30.5t-85.5 29.5q-32 11 -60.5 25t-51.5 39v28z" />
    <glyph glyph-name="asciitilde" unicode="~" 
 />
    <glyph glyph-name="percent" unicode="%" 
 />
    <glyph glyph-name="at" unicode="@" horiz-adv-x="1100" 
d="M797 309q-5 -16 -8.5 -28t-8.5 -22q-54 -93 -130.5 -156t-184.5 -88q-49 -11 -97 -11t-97 14q-40 12 -70 35.5t-49 61.5q-45 91 -52 183t37 186q57 122 142 215.5t206 154.5q45 23 89 42.5t94 27.5q64 11 123 -2t115 -45q45 -26 64 -67t26 -89q12 -77 -15 -152
q-28 -79 -72.5 -145t-111.5 -115zM720 341q5 2 9 3t7 3q5 5 11 9t11 9q85 79 135 188q28 60 29 122t-14 125q-4 15 -11.5 28t-21.5 21q-27 16 -55.5 28.5t-57.5 18t-59.5 2.5t-61.5 -17q-35 -17 -69.5 -34.5t-66.5 -37.5q-109 -69 -179 -166.5t-109 -218.5q-24 -77 -11 -150
t50 -142q43 -80 132 -71q26 3 52 10t51 17q66 26 115.5 70t90.5 100q2 2 1.5 5.5t0.5 6.5q-16 5 -31.5 7.5t-27.5 10.5q-11 8 -18.5 20.5t-17.5 24.5q-10 -8 -19 -17t-19 -17q-27 -23 -53.5 -45.5t-55.5 -43.5q-28 -21 -60.5 -28.5t-67.5 -2.5q-71 8 -74 80q-2 27 4.5 53
t17.5 51q40 95 105.5 166.5t153.5 125.5q6 4 12 6.5t13 5.5q43 18 92 10q38 -6 53 -30.5t1 -60.5q-3 -10 -7 -19t-8 -19q12 8 20.5 18t16.5 21q18 24 43 23q23 0 31.5 -11.5t0.5 -33.5q-4 -11 -8.5 -21.5t-9.5 -21.5q-15 -32 -29.5 -64t-28.5 -64q-5 -11 -9.5 -23.5
t1.5 -29.5zM372 249l17 6q81 54 144.5 122t114.5 149q8 11 13.5 22.5t11.5 22.5q3 6 5.5 12.5t4.5 13.5q7 27 -15 46q-23 21 -47 6q-17 -11 -34 -21t-31 -24q-56 -51 -95 -112t-68 -130q-7 -17 -11 -34t-7 -34q-2 -10 -2 -20.5t-1 -24.5z" />
    <glyph glyph-name="ampersand" unicode="&#x26;" horiz-adv-x="894" 
d="M423 189q-7 -1 -14.5 -2.5t-15.5 -0.5q-23 3 -32.5 20.5t2.5 37.5q14 26 35.5 43.5t50.5 23.5q26 5 52.5 9.5t53.5 6.5q50 4 93.5 19.5t79.5 50.5l8 6q4 3 7.5 7t8 6.5t9 2.5t9.5 -6q9 -9 4.5 -19.5t-9.5 -18.5q-15 -23 -36.5 -39t-46.5 -28q-14 -6 -27.5 -11.5
t-27.5 -11.5q0 -8 1 -9q26 -32 26.5 -64.5t-16.5 -67.5q-62 -133 -207 -154q-38 -6 -74.5 -4t-73.5 13q-29 8 -53.5 23.5t-43.5 38.5q-16 20 -31 40.5t-29 42.5q-23 41 -25 84.5t6 88.5q11 67 45.5 121.5t84.5 99.5q45 39 94.5 67.5t108.5 42.5q6 1 15 6q-4 9 -7 17.5
t-8 16.5q-21 44 -4 90q17 48 48 82.5t79 51.5q35 13 70 17.5t72 -0.5q21 -3 39.5 -16.5t31 -32t17 -41t-2.5 -43.5q-14 -43 -37.5 -74.5t-65.5 -50.5q-14 -6 -28.5 -7.5t-33.5 9.5q10 7 17 12t15 10q66 40 84 113q5 21 0.5 39.5t-16.5 32.5t-29.5 21.5t-38.5 4.5
q-35 -5 -61 -18.5t-43.5 -33t-28 -44t-14.5 -51.5q-2 -14 3 -31t12 -31q8 -17 20.5 -32.5t22.5 -32.5q10 -16 9 -30q-2 -11 -11.5 -14t-18.5 -1q-9 1 -18 4t-17 7q-6 3 -11 7.5t-10 8.5q-59 -11 -110 -41.5t-89.5 -75t-60.5 -99.5t-23 -113q-2 -71 30.5 -124t85.5 -93
q24 -19 51.5 -21t55.5 9q49 20 79 56.5t48 84.5q6 16 3 31.5t-17 28.5t-29.5 15t-31.5 -4q-21 -8 -37 -22t-17 -41q0 -4 -2 -7.5t-4 -8.5z" />
    <glyph glyph-name="bar" unicode="|" horiz-adv-x="381" 
d="M100 54q10 120 18.5 239t22.5 240q11 88 26.5 175t30.5 175q2 15 6.5 29.5t9.5 28.5q7 22 31 25q19 2 28.5 -7t7.5 -29q-5 -50 -10 -99.5t-10 -99.5q-9 -81 -18.5 -160.5t-16.5 -159.5q-8 -97 -14.5 -191.5t-13.5 -190.5q-1 -12 -3 -23.5t-5 -22.5q-6 -21 -29 -29
q-26 -8 -42 3.5t-17 39.5q-1 14 -0.5 28t0.5 28q-2 0 -2 1z" />
    <glyph glyph-name="asciicircum" unicode="^" horiz-adv-x="553" 
d="M303 935q22 -46 45 -91.5t44 -91.5q29 -64 54 -134q8 -21 7.5 -42.5t-20.5 -39.5q-17 3 -23 15.5t-12 24.5l-97 191q-5 11 -11.5 20.5t-14.5 23.5q-9 -11 -15.5 -17.5t-11.5 -13.5q-9 -18 -17 -36t-18 -35q-20 -32 -39.5 -63t-39.5 -63q-3 -3 -7 -5.5t-8 -4.5
q-17 11 -18 25.5t2 29.5q2 11 7 21.5t10 20.5q20 42 40 82t39 82q14 30 31.5 57t44.5 47z" />
    <glyph glyph-name="A" unicode="A" horiz-adv-x="757" 
d="M515 313q-11 -13 -20.5 -25.5t-20.5 -24.5q-37 -45 -75 -87t-82 -79q-28 -24 -58.5 -43.5t-65.5 -30.5q-32 -11 -64 -12.5t-64 9.5q-65 23 -65 87q0 20 2 39.5t7 39.5q39 156 115.5 289t197.5 241q29 26 61.5 47t70.5 30q19 5 38.5 7t39.5 0q38 -3 57.5 -27t14.5 -62
q-3 -24 -11 -50q-39 -138 -115 -255q-4 -7 -7 -13.5t-2 -17.5l46 54t46 55q27 32 53 65.5t52 66.5q6 8 13 15.5t15 15.5q19 19 48 8q19 -7 16 -25l-6 -22t-8 -22q-29 -65 -57.5 -128t-56.5 -128q-23 -55 -45 -110t-44 -111q-3 -7 -4 -15t-3 -18q15 1 24.5 7.5t18.5 13.5
q62 45 118 95.5t110 104.5q20 20 39 40t39 40q13 13 24 16t16 -5q8 -11 2 -20t-11 -18l-3 -3q-66 -76 -134 -149t-149 -136q-36 -29 -77 -43q-16 -5 -33.5 -6t-34.5 1q-26 3 -37 18.5t-6 41.5q3 20 7.5 39t11.5 38q14 39 29.5 78t31.5 78zM427 329q-12 11 -24 20
q6 11 11.5 21.5t11.5 20.5q19 33 38 66.5t38 67.5q18 34 32.5 69.5t21.5 73.5q6 37 2 69q-8 44 -52 31q-20 -5 -34 -15q-20 -14 -39.5 -29t-36.5 -32q-72 -72 -127 -154.5t-93 -177.5q-22 -52 -40 -104.5t-26 -108.5q-3 -27 1 -51q5 -20 13.5 -24t26.5 4q9 4 18.5 9.5
t17.5 10.5q12 8 23 16t22 17q54 45 101 96t94 104z" />
    <glyph glyph-name="B" unicode="B" horiz-adv-x="751" 
d="M499 729q-8 -14 -13 -26t-11 -23q-49 -79 -97.5 -157.5t-97.5 -156.5q-15 -25 -29.5 -50t-27.5 -54q5 5 10 9.5t10 9.5q173 205 380 373q36 29 74.5 55t82.5 45q9 4 19 7.5t21 4.5q32 3 45 -14t1 -46q-10 -28 -29 -53q-14 -18 -28 -35t-29 -33q-47 -48 -93.5 -94.5
l-94.5 -94.5q-5 -6 -11.5 -12.5t-15.5 -16.5q11 -1 18 -1t13 -1q13 0 26 0.5t25 -1.5q42 -5 61 -30.5t11 -67.5q-5 -22 -13 -40q-45 -108 -124.5 -173t-192.5 -90q-61 -13 -125 5q-9 2 -17 6t-13 17q11 20 38 15q44 -9 82 -3.5t71 22t61.5 42.5t53.5 59q20 27 35 58t29 61
q8 17 12 35.5t-4 38.5h-32q-19 -2 -37 -3.5t-37 -1.5q-9 0 -18.5 2.5t-17.5 5.5q-9 4 -11.5 11.5t2.5 15.5q8 11 16.5 20.5t17.5 18.5l252 257q16 16 29 34.5t26 44.5q-11 -4 -18 -6t-12 -5q-60 -31 -109.5 -72.5t-97.5 -86.5q-76 -69 -142 -145.5t-128 -157.5
q-35 -45 -71 -89.5t-72 -89.5q-11 -14 -24.5 -27t-26.5 -27q-16 -16 -35 -19.5t-39 -0.5q-36 6 -24 41q13 32 24.5 65t28.5 64q63 118 127.5 234t145.5 223q19 26 39.5 49t42.5 46q17 17 38.5 20t49.5 -11z" />
    </font>
</defs>
</svg>
